<svg xmlns="http://www.w3.org/2000/svg" style="shape-rendering:geometricPrecision;text-rendering:geometricPrecision;image-rendering:optimizeQuality;fill-rule:evenodd;clip-rule:evenodd" viewBox="0 0 442 442" width="32" height="32"><path fill="#2f2327" d="M7.5-.5h37c-.71 5.633-2.877 10.633-6.5 15a32.034 32.034 0 0 1-2.5-4c-7.99-4.355-16.324-5.021-25-2a23.954 23.954 0 0 1-3-9Z" style="opacity:1"/><path fill="#f0eff0" d="M55.5-.5h5a292.3 292.3 0 0 1-7 22.5c.478 1.642 1.478 2.81 3 3.5.27 1.88-.396 3.213-2 4h-3c-2.034-3.892-2.367-7.892-1-12a264.479 264.479 0 0 0 5-18Z" style="opacity:1"/><path fill="#281f23" d="M77.5-.5h32a277.121 277.121 0 0 1-18 22l-4 4a40.893 40.893 0 0 0-13 7 5.728 5.728 0 0 1-3 1v-4a22.388 22.388 0 0 1-8-2.5c-1.323-.816-1.99-1.983-2-3.5a290.734 290.734 0 0 0 16-24Z" style="opacity:1"/><path fill="#f6efed" d="M113.5-.5h14a21.17 21.17 0 0 1-2 7 162.336 162.336 0 0 1-33 19 20.677 20.677 0 0 1-5 1v-1l4-4a114.6 114.6 0 0 0 22-22Z" style="opacity:1"/><path fill="#f9f5f4" d="M128.5-.5h27a3578.5 3578.5 0 0 1-15.5 57 2276.974 2276.974 0 0 1-13.5 76.5c.737 6.965 1.904 7.132 3.5.5a788.304 788.304 0 0 1 12-54A574.443 574.443 0 0 1 166.5 18a40.904 40.904 0 0 0 15.5-3.5 10.017 10.017 0 0 1 4.5 2.5c-10.723 39.456-18.056 79.622-22 120.5a887.86 887.86 0 0 0 1.5 14c.057-3.351.891-6.351 2.5-9a129.727 129.727 0 0 1-2 17c-.241 5.194-.907 10.194-2 15a21.127 21.127 0 0 0-1-9 50.413 50.413 0 0 0-2.5 13 36.167 36.167 0 0 1-8 12c-2.001 4.679-4.001 9.345-6 14a1579.18 1579.18 0 0 1-11.5 43.5c-1.386 2.417-3.386 3.417-6 3 4.937-5.26 7.27-11.26 7-18 1.383-2.694 1.883-5.527 1.5-8.5a550.602 550.602 0 0 0-8 21l-3.5 5.5c.752.671 1.086 1.504 1 2.5-2.667-2-5-4.333-7-7a56.149 56.149 0 0 1 4-9.5v-6c5.694-8.072 7.527-16.906 5.5-26.5a13.92 13.92 0 0 1-4-3 67.876 67.876 0 0 0-7-12c-8.394-28.381-12.56-57.381-12.5-87l5-34a964.955 964.955 0 0 1 8-34v-4a79.367 79.367 0 0 0 4-12c1.424-2.015 2.09-4.348 2-7l1-4c1.54-2.338 2.206-5.005 2-8Z" style="opacity:1"/><path fill="#fdfcfc" d="M155.5-.5h49a610.043 610.043 0 0 0-20 65c-.801 1.542-1.134 3.209-1 5a263.258 263.258 0 0 0-6.5 22 1341.106 1341.106 0 0 0-8.5 51c-1.609 2.649-2.443 5.649-2.5 9a887.86 887.86 0 0 1-1.5-14c3.944-40.878 11.277-81.044 22-120.5a10.017 10.017 0 0 0-4.5-2.5 40.904 40.904 0 0 1-15.5 3.5A574.443 574.443 0 0 0 142 79.5a788.304 788.304 0 0 0-12 54c-1.596 6.632-2.763 6.465-3.5-.5A2276.974 2276.974 0 0 0 140 56.5a3578.5 3578.5 0 0 0 15.5-57Z" style="opacity:1"/><path fill="#fbfafb" d="M274.5-.5h41v28h-2a161.651 161.651 0 0 0-20-14 294.746 294.746 0 0 1-19-14Z" style="opacity:1"/><path fill="#fcfcf9" d="M318.5-.5h69a635.988 635.988 0 0 1-1 33 561.222 561.222 0 0 1-12.5 45 192.854 192.854 0 0 1-23.5 39h-3v-3c1.946-.754 2.779-2.088 2.5-4a150.347 150.347 0 0 1-23.5 12c-2.337-22.82-4.67-45.487-7-68a72.368 72.368 0 0 1 .5-12c.718.95 1.551 1.117 2.5.5-2.707-1.864-3.541-4.364-2.5-7.5 2.988.683 2.822.016-.5-2a281.603 281.603 0 0 1-1-33Z" style="opacity:1"/><path fill="#fcfaf9" d="M395.5-.5h30c.836 16.484-1.498 32.484-7 48a136.768 136.768 0 0 1-12.5 24 38.44 38.44 0 0 1-5.5 5h-13v-3a144.484 144.484 0 0 0 8-22c1.269-17.183 1.269-34.516 0-52Z" style="opacity:1"/><path fill="#efe5db" d="M206.5-.5h5a654.016 654.016 0 0 0 1 31 26111.327 26111.327 0 0 0-25 34c-.597-.235-.93-.735-1-1.5a702.604 702.604 0 0 1 20-63.5Z" style="opacity:1"/><path fill="#2b1e22" d="M47.5-.5h8a264.479 264.479 0 0 1-5 18 111.25 111.25 0 0 1-2-5c-2.132 1.617-4.465 2.117-7 1.5 2.986-4.466 4.986-9.3 6-14.5Z" style="opacity:1"/><path fill="#c8806f" d="M387.5-.5h3v22c-1.476 4.46-2.642 9.126-3.5 14a4.934 4.934 0 0 1-.5-3c.619-10.99.952-21.99 1-33Z" style="opacity:1"/><path fill="#b99095" d="M127.5-.5h1c.206 2.995-.46 5.662-2 8 0-.667-.333-1-1-1a21.17 21.17 0 0 0 2-7Z" style="opacity:1"/><path fill="#a69398" d="M272.5-.5h2a294.746 294.746 0 0 0 19 14c0 .667-.333 1-1 1a110.689 110.689 0 0 1-20-15Z" style="opacity:1"/><path fill="#bb6c61" d="M230.5-.5h1c-.163 2.357.003 4.69.5 7 2.325-2 4.158-4.334 5.5-7h2c.925 4.29 1.591 8.623 2 13-1.573-2.834-2.739-6.501-3.5-11a78.678 78.678 0 0 0-9 12 4.934 4.934 0 0 1-.5-3 63.322 63.322 0 0 0 2-11Z" style="opacity:1"/><path fill="#eed3be" d="M231.5-.5h6c-1.342 2.666-3.175 5-5.5 7a24.935 24.935 0 0 1-.5-7Z" style="opacity:1"/><path fill="#3e2930" d="M60.5-.5h17a290.734 290.734 0 0 1-16 24c-2.281-.423-3.948.244-5 2-1.522-.69-2.522-1.858-3-3.5a292.3 292.3 0 0 0 7-22.5Z" style="opacity:1"/><path fill="#eccfb4" d="M241.5 12.5c.838.342 1.172 1.008 1 2-.114 7.359 1.886 14.359 6 21-6.435 1.56-12.102 4.727-17 9.5-1.634.493-3.301.66-5 .5.614-9.165 1.281-18.331 2-27.5-.014-1.385-.348-2.551-1-3.5-.268-1.599.066-2.932 1-4a4.934 4.934 0 0 0 .5 3 78.678 78.678 0 0 1 9-12c.761 4.499 1.927 8.166 3.5 11Z" style="opacity:1"/><path fill="#dfcbce" d="M-.5-.5h4a81.912 81.912 0 0 0 2 10 191.653 191.653 0 0 1-6 21v-31Z" style="opacity:1"/><path fill="#b7665a" d="M315.5-.5h3a281.603 281.603 0 0 0 1 33c-3.152.488-4.485-1.179-4-5v-28Z" style="opacity:1"/><path fill="#3d1319" d="M109.5-.5h4a114.6 114.6 0 0 1-22 22 277.121 277.121 0 0 0 18-22Z" style="opacity:1"/><path fill="#461a20" d="M125.5 6.5c.667 0 1 .333 1 1l-1 4c-1.424 2.014-2.09 4.348-2 7a79.367 79.367 0 0 1-4 12v-7a53.773 53.773 0 0 0 2-10c-5.047 1.691-9.713 4.192-14 7.5a66.512 66.512 0 0 1-15 4.5 162.336 162.336 0 0 0 33-19Z" style="opacity:1"/><path fill="#ba938a" d="M211.5-.5h1c-.253 9.783.413 19.45 2 29l-2 2a654.016 654.016 0 0 1-1-31Z" style="opacity:1"/><path fill="#bc9d9d" d="M125.5 11.5c.09 2.652-.576 4.985-2 7-.09-2.652.576-4.986 2-7Z" style="opacity:1"/><path fill="#906e76" d="M5.5 9.5c.845 1.171 1.511 2.505 2 4a144.771 144.771 0 0 0-8 22v-5a191.653 191.653 0 0 0 6-21Z" style="opacity:1"/><path fill="#483f36" d="M3.5-.5h4a23.954 23.954 0 0 0 3 9 26.156 26.156 0 0 0 5 7 32.421 32.421 0 0 1 8 8.5c-1.556.72-2.556 1.887-3 3.5-1.23 1.797-1.896 3.797-2 6a35.167 35.167 0 0 0-2 8 60.844 60.844 0 0 0-3 12c-2.873 9.022-4.873 18.356-6 28a128.754 128.754 0 0 0-.5 26c.595 4.412 2.095 8.412 4.5 12v1c-1.673-.843-2.84-2.176-3.5-4a30.128 30.128 0 0 1-3-12c-.33-9.706.17-19.373 1.5-29v-3a380.695 380.695 0 0 1 12-45.5c-4.612-3.774-8.279-8.274-11-13.5-.489-1.495-1.155-2.829-2-4a81.912 81.912 0 0 1-2-10Z" style="opacity:1"/><path fill="#3d4136" d="M44.5 36.5a12.625 12.625 0 0 0-4-1 501.166 501.166 0 0 0-18.5 2c-.179-3.525-.679-6.859-1.5-10 .444-1.613 1.444-2.78 3-3.5a32.421 32.421 0 0 0-8-8.5c2.719.102 5.385-.23 8-1 3.32.797 6.654 1.464 10 2a4.932 4.932 0 0 0 .5 3 56.156 56.156 0 0 1 10.5 17Z" style="opacity:1"/><path fill="#412631" d="M119.5 23.5c-3.289 3.146-6.122 6.813-8.5 11a210.702 210.702 0 0 1-12.5 12 7.467 7.467 0 0 1-3-2 131.897 131.897 0 0 1-6.5-14 11.362 11.362 0 0 0-3.5-1.5c.88-.708 1.547-1.542 2-2.5a20.677 20.677 0 0 0 5-1c5.146-.9 10.146-2.4 15-4.5 4.287-3.308 8.953-5.809 14-7.5a53.773 53.773 0 0 1-2 10Z" style="opacity:1"/><path fill="#dccecc" d="M7.5 13.5c2.721 5.226 6.388 9.726 11 13.5a380.695 380.695 0 0 0-12 45.5 60.937 60.937 0 0 0-.5-11 3.645 3.645 0 0 0-1.5-1c-1.44 1.452-3.106 2.452-5 3v-28a144.771 144.771 0 0 1 8-22Z" style="opacity:1"/><path fill="#fcf9f6" d="M212.5-.5h18a63.322 63.322 0 0 1-2 11c-.934 1.068-1.268 2.401-1 4a461.53 461.53 0 0 0-2 15c-.993 8.15-1.326 16.483-1 25h-5c0-.667-.333-1-1-1a225.142 225.142 0 0 0-4-24v-1a152.461 152.461 0 0 1-2-29Z" style="opacity:1"/><path fill="#e4dadc" d="M293.5 13.5a161.651 161.651 0 0 1 20 14c1.333 2 1.333 4 0 6a283.912 283.912 0 0 1-21-19c.667 0 1-.333 1-1Z" style="opacity:1"/><path fill="#bf877c" d="M425.5-.5h2c.494 15.707-1.672 31.04-6.5 46-.4 11.005-.233 22.005.5 33h-6v-1h4c.326-8.517-.007-16.85-1-25 1.22-1.784 1.22-3.45 0-5 5.502-15.516 7.836-31.516 7-48Z" style="opacity:1"/><path fill="#c27d6a" d="M242.5 14.5a101.117 101.117 0 0 0 5.5 17 271.682 271.682 0 0 1 9.5 20c-3.74-4.853-6.74-10.187-9-16-4.114-6.641-6.114-13.641-6-21Z" style="opacity:1"/><path fill="#473235" d="M87.5 25.5v1c-.453.958-1.12 1.792-2 2.5 1.266.31 2.433.81 3.5 1.5a131.897 131.897 0 0 0 6.5 14 7.467 7.467 0 0 0 3 2c-1.676 3.043-4.01 5.377-7 7-2.235-.728-4.068-2.061-5.5-4a114.5 114.5 0 0 0-6-13c-1.451-1.964-3.284-3.297-5.5-4a40.893 40.893 0 0 1 13-7Z" style="opacity:1"/><path fill="#c77e67" d="M227.5 14.5c.652.949.986 2.115 1 3.5a2426.777 2426.777 0 0 0-2 27.5v2c-.99-5.81-1.323-11.81-1-18a461.53 461.53 0 0 1 2-15Z" style="opacity:1"/><path fill="#4f463e" d="M51.5 29.5h3a28.268 28.268 0 0 1-4 8 33.857 33.857 0 0 0-4.5-6 2.428 2.428 0 0 0-.5 2 128.19 128.19 0 0 0-8.5-12 8.434 8.434 0 0 1-.5-4c4.03-1.015 8.03-1.015 12 0-.165 3.35.002 6.683.5 10a7.291 7.291 0 0 0 2 3c.399-.228.565-.562.5-1Z" style="opacity:1"/><path fill="#35342b" d="M61.5 23.5c.01 1.517.677 2.684 2 3.5a22.388 22.388 0 0 0 8 2.5v4c-2.228 2.95-5.228 4.616-9 5-.35-4.341-2.683-6.008-7-5 .194 2.83.86 5.496 2 8-.291 1.15-1.124 1.816-2.5 2-2.692-1.03-4.192-3.03-4.5-6a28.268 28.268 0 0 0 4-8c1.604-.787 2.27-2.12 2-4 1.052-1.756 2.719-2.423 5-2Z" style="opacity:1"/><path fill="#291d1d" d="M119.5 23.5v11c-2.087 1.085-3.42 2.751-4 5-6.302 8.643-12.635 17.31-19 26-.81-1.792-1.31-3.792-1.5-6a72.122 72.122 0 0 0-3.5-5v-1c2.99-1.623 5.324-3.957 7-7a210.702 210.702 0 0 0 12.5-12c2.378-4.187 5.211-7.854 8.5-11Z" style="opacity:1"/><path fill="#fbfaf6" d="M239.5-.5h33a110.689 110.689 0 0 0 20 15 283.912 283.912 0 0 0 21 19 53.806 53.806 0 0 1 1 14c-1.477 19.58-.81 39.247 2 59-.376 2.303-1.376 2.637-3 1a30.137 30.137 0 0 0-3.5-6 395.593 395.593 0 0 1-17.5-16 34.834 34.834 0 0 0-4.5 12c-3.748-7.092-6.581-14.425-8.5-22-1-.333-1.667-1-2-2a722.554 722.554 0 0 1-15.5-56c-.848 4.35-1.681 8.684-2.5 13a118.278 118.278 0 0 1 1 16 9.86 9.86 0 0 1-1 6 44.043 44.043 0 0 0-2-1 271.682 271.682 0 0 0-9.5-20 101.117 101.117 0 0 1-5.5-17c.172-.992-.162-1.658-1-2a110.333 110.333 0 0 0-2-13Z" style="opacity:1"/><path fill="#f4f4ef" d="M62.5 38.5a75.016 75.016 0 0 1 6 20c.584 2.785-.416 4.452-3 5h-2c-.876-7.75-2.876-15.083-6-22-1.14-2.504-1.806-5.17-2-8 4.317-1.008 6.65.659 7 5Z" style="opacity:1"/><path fill="#eee4dc" d="M427.5-.5h1a916.09 916.09 0 0 1 2 79h-9a320.666 320.666 0 0 1-.5-33c4.828-14.96 6.994-30.293 6.5-46Z" style="opacity:1"/><path fill="#f2eae1" d="M390.5-.5h5c1.269 17.484 1.269 34.817 0 52a4.934 4.934 0 0 0-.5-3 556.51 556.51 0 0 0-7 20c.165-9.668.665-19.334 1.5-29a93.303 93.303 0 0 0 1-18v-22Z" style="opacity:1"/><path fill="#6c6660" d="M20.5 27.5c.821 3.141 1.321 6.475 1.5 10a501.166 501.166 0 0 1 18.5-2c1.425.123 2.758.457 4 1a28.932 28.932 0 0 1 3 8c-9.22-2.242-18.553-2.575-28-1 .313-3.542-.02-6.875-1-10 .104-2.203.77-4.203 2-6Z" style="opacity:1"/><path fill="#55483e" d="M74.5 32.5c2.216.703 4.049 2.036 5.5 4a114.5 114.5 0 0 1 6 13c1.432 1.939 3.265 3.272 5.5 4v1c-3.337 4.37-7.004 7.703-11 10a112.802 112.802 0 0 1-6.5-10c-.72 1.612-.554 3.112.5 4.5a237.903 237.903 0 0 1-6-.5 75.016 75.016 0 0 0-6-20c3.772-.384 6.772-2.05 9-5a5.728 5.728 0 0 0 3-1Z" style="opacity:1"/><path fill="#e5c2af" d="M225.5 29.5c-.323 6.19.01 12.19 1 18v7h-2c-.326-8.517.007-16.85 1-25Z" style="opacity:1"/><path fill="#ba7159" d="M277.5 73.5c-.992.172-1.658-.162-2-1a584.233 584.233 0 0 1-8-26h-5c1.68 4.088 2.347 8.421 2 13-1.599.268-2.932-.066-4-1 1.225-.652 1.892-1.819 2-3.5-.241-3.062-.908-5.895-2-8.5a118.278 118.278 0 0 0-1-16c.819-4.316 1.652-8.65 2.5-13a722.554 722.554 0 0 0 15.5 56Z" style="opacity:1"/><path fill="#edaa84" d="M261.5 25.5a131.99 131.99 0 0 1 5 19c-1.951.273-3.451-.393-4.5-2a145.05 145.05 0 0 1-.5-17Z" style="opacity:1"/><path fill="#d39883" d="M313.5 27.5h2c-.485 3.821.848 5.488 4 5 3.322 2.016 3.488 2.683.5 2-1.041 3.136-.207 5.636 2.5 7.5-.949.617-1.782.45-2.5-.5a72.368 72.368 0 0 0-.5 12h-1c-.721-1.882-1.721-2.215-3-1-.951-1.419-1.284-3.085-1-5a53.806 53.806 0 0 0-1-14c1.333-2 1.333-4 0-6Z" style="opacity:1"/><path fill="#faf7ef" d="M248.5 35.5c2.26 5.813 5.26 11.147 9 16v4a249.22 249.22 0 0 1-31-1v-9c1.699.16 3.366-.007 5-.5 4.898-4.773 10.565-7.94 17-9.5Z" style="opacity:1"/><path fill="#756861" d="M50.5 37.5c.308 2.97 1.808 4.97 4.5 6 1.376-.184 2.209-.85 2.5-2 3.124 6.917 5.124 14.25 6 22-1.175.219-2.175-.114-3-1-.338-3.888-1.838-7.221-4.5-10-1.27 1.405-1.77 3.071-1.5 5-1.789-8.356-4.789-16.356-9-24a2.428 2.428 0 0 1 .5-2 33.857 33.857 0 0 1 4.5 6Z" style="opacity:1"/><path fill="#cd9982" d="M214.5 29.5a225.142 225.142 0 0 1 4 24c-1.599.268-2.932-.066-4-1 1.086-.12 1.753-.787 2-2a229.033 229.033 0 0 0-4-16c1.468-1.28 2.135-2.946 2-5Z" style="opacity:1"/><path fill="#8e847a" d="M18.5 33.5c.98 3.125 1.313 6.458 1 10 9.447-1.575 18.78-1.242 28 1 2.89 5.55 4.557 11.55 5 18h-1l-17-8.5a67.622 67.622 0 0 0-18-1.5c.835-3.84.835-7.506 0-11a35.167 35.167 0 0 1 2-8Z" style="opacity:1"/><path fill="#c0968e" d="M204.5-.5h2a702.604 702.604 0 0 0-20 63.5c.07.765.403 1.265 1 1.5-1.028 2.598-2.028 2.598-3 0a610.043 610.043 0 0 1 20-65Z" style="opacity:1"/><path fill="#392f28" d="M44.5-.5h3c-1.014 5.2-3.014 10.034-6 14.5 2.535.617 4.868.117 7-1.5a111.25 111.25 0 0 0 2 5c-1.367 4.108-1.034 8.108 1 12 .065.438-.101.772-.5 1a7.291 7.291 0 0 1-2-3 50.441 50.441 0 0 1-.5-10c-3.97-1.015-7.97-1.015-12 0a8.434 8.434 0 0 0 .5 4 128.19 128.19 0 0 1 8.5 12c4.211 7.644 7.211 15.644 9 24 1.748 8.527 2.415 17.194 2 26v2c-1.291-.237-2.291.096-3 1a98.343 98.343 0 0 0-7.5 9 8.434 8.434 0 0 0-.5 4 30.943 30.943 0 0 1-2-2c-.607.124-.94.457-1 1a325.546 325.546 0 0 1-26.5 26c-.383-.556-.883-.889-1.5-1l2-2a515.941 515.941 0 0 0 27-27 964.153 964.153 0 0 0 10.5-11c.892-7.126.392-14.126-1.5-21-.443-6.45-2.11-12.45-5-18a28.932 28.932 0 0 0-3-8 56.156 56.156 0 0 0-10.5-17 4.932 4.932 0 0 1-.5-3 132.626 132.626 0 0 1-10-2 24.846 24.846 0 0 1-8 1 26.156 26.156 0 0 1-5-7c8.676-3.021 17.01-2.355 25 2a32.034 32.034 0 0 0 2.5 4c3.623-4.367 5.79-9.367 6.5-15Z" style="opacity:1"/><path fill="#dfb9a4" d="M389.5 39.5a420.139 420.139 0 0 0-1.5 29 556.51 556.51 0 0 1 7-20c.483.948.649 1.948.5 3a144.484 144.484 0 0 1-8 22h-1a8.43 8.43 0 0 0-.5-4c-.566 2.223-1.4 4.223-2.5 6a317.426 317.426 0 0 1 3-27c-.02-1.226-.353-2.226-1-3 .27-3.202 1.104-6.202 2.5-9 .232 1.237.732 2.237 1.5 3Z" style="opacity:1"/><path fill="#eaceb8" d="M260.5 46.5c1.092 2.605 1.759 5.438 2 8.5-.108 1.681-.775 2.848-2 3.5-.6-1.4-1.6-2.4-3-3v-4c.65.304 1.317.637 2 1a9.86 9.86 0 0 0 1-6Z" style="opacity:1"/><path fill="#ddd0bf" d="M115.5 39.5c-5.372 23.17-10.039 46.836-14 71-.632 4.202-1.632 8.202-3 12 .219-1.175-.114-2.175-1-3a28.455 28.455 0 0 1-6 9.5 32.462 32.462 0 0 1-8 .5 69.302 69.302 0 0 1-.5-19 1116.18 1116.18 0 0 1 7.5-26c-.143-2.906-1.143-5.24-3-7l9-12c6.365-8.69 12.698-17.357 19-26Z" style="opacity:1"/><path fill="#9d9587" d="M16.5 41.5c.835 3.494.835 7.16 0 11a67.622 67.622 0 0 1 18 1.5l17 8.5a25.635 25.635 0 0 1-6 6l-3 2c-.359-1.871-1.359-3.371-3-4.5a25.104 25.104 0 0 1-8-5 50.755 50.755 0 0 0-15-4.5l-3-3a60.844 60.844 0 0 1 3-12Z" style="opacity:1"/><path fill="#b76858" d="M214.5 28.5v1c.135 2.054-.532 3.72-2 5a294.567 294.567 0 0 0-14 19 76.166 76.166 0 0 0-12 17c-1.291.237-2.291-.096-3-1-.134-1.791.199-3.458 1-5 .972 2.598 1.972 2.598 3 0 8.302-11.31 16.635-22.643 25-34l2-2Z" style="opacity:1"/><path fill="#f2ead4" d="M210.5 57.5c2.029 1.52 2.862 3.52 2.5 6-3.858 1.5-7.025 3.834-9.5 7l-2 1c-1.624-.14-2.79.527-3.5 2-1.368-1.527-1.868-3.027-1.5-4.5a65.326 65.326 0 0 0 8-11c1.956-1.612 3.956-1.778 6-.5Z" style="opacity:1"/><path fill="#440e08" d="M224.5 54.5h2a249.22 249.22 0 0 0 31 1c1.4.6 2.4 1.6 3 3 1.068.934 2.401 1.268 4 1 .61.891.943 1.891 1 3-.223 2.614.944 4.28 3.5 5a11.339 11.339 0 0 0 1.5 3.5c-.96 3.73-1.293 7.563-1 11.5a4170.784 4170.784 0 0 1-14-10c-.077-1.25-.744-2.083-2-2.5-9.141-.97-18.141-.47-27 1.5a67.862 67.862 0 0 0-2-7v-10Z" style="opacity:1"/><path fill="#e6b89a" d="M198.5 53.5c-.528 1.347-.695 2.68-.5 4 1.011-.837 2.178-1.17 3.5-1a12.93 12.93 0 0 1-.5 5c-3.662 5.182-8.495 8.516-14.5 10v-1a76.166 76.166 0 0 1 12-17Z" style="opacity:1"/><path fill="#f5c8a7" d="m275.5 72.5-10-10a5.727 5.727 0 0 0-1-3c.347-4.579-.32-8.912-2-13h5a584.233 584.233 0 0 0 8 26Z" style="opacity:1"/><path fill="#f5f1f2" d="M6.5 72.5v3c-1.676 2.334-4.009 3.334-7 3v-15c1.894-.548 3.56-1.548 5-3 .586.21 1.086.543 1.5 1 .499 3.652.665 7.318.5 11Z" style="opacity:1"/><path fill="#c5b897" d="M219.5 54.5h5v10c.369 2.493-.297 3.16-2 2a67.703 67.703 0 0 1-3-12Z" style="opacity:1"/><path fill="#a9a590" d="m13.5 53.5 3 3a50.755 50.755 0 0 1 15 4.5 25.104 25.104 0 0 0 8 5c1.641 1.129 2.641 2.629 3 4.5l-2 3-8 8c-.958.453-1.792 1.12-2.5 2l-1-1-4 4c1.207-2.45 1.873-5.117 2-8-2.184-1.966-4.517-2.633-7-2-.945-.405-1.612-1.072-2-2-2.089.245-4.089.245-6 0-1.011 2.7-2.511 5.033-4.5 7 1.127-9.644 3.127-18.978 6-28Z" style="opacity:1"/><path fill="#5d5c46" d="m80.5 64.5-5 6a11.741 11.741 0 0 1-5 3v-6c-2.082-.028-3.916.639-5.5 2 .651 8.008.485 16.008-.5 24-.983-3.798-1.317-7.798-1-12a52.296 52.296 0 0 1-.5-14 16.569 16.569 0 0 1 2.5-4c2.584-.548 3.584-2.215 3-5 2.075.198 4.075.365 6 .5-1.054-1.388-1.22-2.888-.5-4.5a112.802 112.802 0 0 0 6.5 10Z" style="opacity:1"/><path fill="#4b0e0a" d="M214.5 52.5c1.068.934 2.401 1.268 4 1 .667 0 1 .333 1 1a67.703 67.703 0 0 0 3 12c1.625 2.716 1.292 5.049-1 7a183.03 183.03 0 0 0-14 6c-.287-1.62-1.287-2.62-3-3a9.86 9.86 0 0 1-1-6c2.475-3.166 5.642-5.5 9.5-7 .362-2.48-.471-4.48-2.5-6a16.08 16.08 0 0 0-2-5c1.901-.73 3.901-.73 6 0Z" style="opacity:1"/><path fill="#373d2a" d="M91.5 54.5a72.122 72.122 0 0 1 3.5 5c.19 2.208.69 4.208 1.5 6l-9 12a451.723 451.723 0 0 1-22 28v-1c2.719-2.77 4.385-6.104 5-10 1.175.219 2.175-.114 3-1a25.029 25.029 0 0 1 6.5-8c2.46-2.57 3.46-5.57 3-9a125.698 125.698 0 0 0-7.5-6l5-6c3.996-2.297 7.663-5.63 11-10Z" style="opacity:1"/><path fill="#edd3bc" d="M385.5 45.5c.647.774.98 1.774 1 3a317.426 317.426 0 0 0-3 27c-.454 2.241-.454 4.241 0 6a103.536 103.536 0 0 1-12 17.5c2.913.048 5.579-.785 8-2.5h1c-3.939 3.48-8.272 5.479-13 6 4.584-5.57 7.584-11.903 9-19 1.175.219 2.175-.114 3-1-1.96-1.02-3.96-1.02-6 0a172.544 172.544 0 0 0 12-37Z" style="opacity:1"/><path fill="#8d8774" d="M63.5 63.5h2a16.569 16.569 0 0 0-2.5 4 52.296 52.296 0 0 0 .5 14l-4 4a4.932 4.932 0 0 0-.5-3c-.67.752-1.504 1.086-2.5 1 .415-8.806-.252-17.473-2-26-.27-1.929.23-3.595 1.5-5 2.662 2.779 4.162 6.112 4.5 10 .825.886 1.825 1.219 3 1Z" style="opacity:1"/><path fill="#dbb7a8" d="M314.5 47.5c-.284 1.915.049 3.581 1 5a358.699 358.699 0 0 0 3 56.5l-.5 4.5c-2.127-1.614-3.627-3.614-4.5-6 1.624 1.637 2.624 1.303 3-1-2.81-19.753-3.477-39.42-2-59Z" style="opacity:1"/><path fill="#b8735a" d="M418.5 47.5c1.22 1.55 1.22 3.216 0 5-5.056 11.475-12.056 21.475-21 30a85.817 85.817 0 0 1-17 14h-1c4.626-3.99 9.293-7.99 14-12a982.08 982.08 0 0 0 7-8 38.44 38.44 0 0 0 5.5-5 136.768 136.768 0 0 0 12.5-24Z" style="opacity:1"/><path fill="#977965" d="M224.5 64.5a67.862 67.862 0 0 1 2 7v1c-.617-.11-1.117-.444-1.5-1-.71 1.473-1.876 2.14-3.5 2 2.292-1.951 2.625-4.284 1-7 1.703 1.16 2.369.493 2-2Z" style="opacity:1"/><path fill="#38121e" d="m255.5 72.5-4-1c-4-1.333-8-1.333-12 0a52.416 52.416 0 0 0-13 1v-1c8.859-1.97 17.859-2.47 27-1.5 1.256.417 1.923 1.25 2 2.5Z" style="opacity:1"/><path fill="#7f748c" d="M251.5 71.5c-3.542-.313-6.875.02-10 1h-2v-1c4-1.333 8-1.333 12 0Z" style="opacity:1"/><path fill="#efd7bf" d="M212.5 34.5a229.033 229.033 0 0 1 4 16c-.247 1.213-.914 1.88-2 2-2.099-.73-4.099-.73-6 0a16.08 16.08 0 0 1 2 5c-2.044-1.278-4.044-1.112-6 .5a65.326 65.326 0 0 1-8 11c-.368 1.473.132 2.973 1.5 4.5.71-1.473 1.876-2.14 3.5-2l-2 3c-3.533 2.7-7.199 5.2-11 7.5.916.278 1.582.778 2 1.5h-3v24c-.995-11.822-1.328-23.822-1-36 6.005-1.484 10.838-4.818 14.5-10 .494-1.634.66-3.3.5-5-1.322-.17-2.489.163-3.5 1-.195-1.32-.028-2.653.5-4a294.567 294.567 0 0 1 14-19Z" style="opacity:1"/><path fill="#f7f0e7" d="M415.5 77.5v1c-3.513.192-6.846-.474-10-2 2.418-.915 4.418-2.415 6-4.5a8.435 8.435 0 0 1 4-.5v6Z" style="opacity:1"/><path fill="#680d0c" d="m265.5 62.5 10 10c.342.838 1.008 1.172 2 1 .333 1 1 1.667 2 2v2h-4a57.398 57.398 0 0 0-2 9c-1.667-1-3-2.333-4-4-.293-3.937.04-7.77 1-11.5a11.339 11.339 0 0 1-1.5-3.5c-2.556-.72-3.723-2.386-3.5-5Z" style="opacity:1"/><path fill="#f8f1f6" d="M241.5 72.5c3.125-.98 6.458-1.313 10-1l4 1c4.629 3.321 9.296 6.654 14 10 1 1.667 2.333 3 4 4l2 7h-4c-4.152-4.818-9.152-8.485-15-11-1-1.667-2.333-3-4-4-3.178-2.758-6.845-4.758-11-6Z" style="opacity:1"/><path fill="#465939" d="M75.5 70.5c2.522 1.86 5.022 3.86 7.5 6 .46 3.43-.54 6.43-3 9a25.029 25.029 0 0 0-6.5 8c-.825.886-1.825 1.219-3 1v-21a11.741 11.741 0 0 0 5-3Z" style="opacity:1"/><path fill="#238cea" d="M239.5 72.5h2c4.155 1.242 7.822 3.242 11 6-.597.235-.93.735-1 1.5a11.804 11.804 0 0 0 2 3.5h-4a29.13 29.13 0 0 0-.5 9c1.518.663 2.685 1.663 3.5 3a19.24 19.24 0 0 1-6-1 62.97 62.97 0 0 0-2-12.5 46.426 46.426 0 0 0-16-3.5c-.239-1.967.094-3.8 1-5.5a50.442 50.442 0 0 1 10-.5Z" style="opacity:1"/><path fill="#740606" d="M203.5 70.5a9.86 9.86 0 0 0 1 6c1.713.38 2.713 1.38 3 3-.333 1-1 1.667-2 2v-3c-3.741.901-5.741-.432-6-4l2-3 2-1Z" style="opacity:1"/><path fill="#b77e66" d="M386.5 73.5c-.06 2.84-.726 5.507-2 8h-1c-.454-1.759-.454-3.759 0-6 1.1-1.777 1.934-3.777 2.5-6a8.43 8.43 0 0 1 .5 4Z" style="opacity:1"/><path fill="#e8e2e2" d="M226.5 72.5c-.282 1.278-.949 2.278-2 3-2.609.943-4.609 2.61-6 5a6.544 6.544 0 0 0-3 3c-3.932-.24-6.766 1.427-8.5 5-.232-1.237-.732-2.237-1.5-3v-4c1-.333 1.667-1 2-2a183.03 183.03 0 0 1 14-6c1.624.14 2.79-.527 3.5-2 .383.556.883.89 1.5 1Z" style="opacity:1"/><path fill="#aeb092" d="M32.5 81.5c-4.723 10.888-11.556 20.221-20.5 28-.851 3.542-.351 6.875 1.5 10-.47.963-1.136.963-2 0-2.405-3.588-3.905-7.588-4.5-12-.71-8.694-.544-17.36.5-26 1.989-1.967 3.489-4.3 4.5-7 1.911.245 3.911.245 6 0 .388.928 1.055 1.595 2 2 2.483-.633 4.816.034 7 2-.127 2.883-.793 5.55-2 8l4-4 1 1c.708-.88 1.542-1.547 2.5-2Z" style="opacity:1"/><path fill="#d7bfb4" d="m111.5 68.5-5 34a210.696 210.696 0 0 0-4 15v-6a978.399 978.399 0 0 1 9-43Z" style="opacity:1"/><path fill="#6e7d69" d="M51.5 62.5h1c1.892 6.874 2.392 13.874 1.5 21a964.153 964.153 0 0 1-10.5 11l-2-15c.167-4.175 1.5-7.842 4-11a25.635 25.635 0 0 0 6-6Z" style="opacity:1"/><path fill="#fcfbf6" d="M414.5 80.5c.987 4.805 1.321 9.805 1 15a202.869 202.869 0 0 1-2.5 23c-3.085.639-6.585.639-10.5 0a5.727 5.727 0 0 0-3-1c-9.082-1.583-18.082-1.25-27 1-1.544-.29-2.877-.956-4-2a70.852 70.852 0 0 0-10 10 325.386 325.386 0 0 0-5 6l.5 1a31.84 31.84 0 0 0 4.5-5c1.334 1.987 2.667 3.987 4 6l-9 8a10.515 10.515 0 0 0-3 2.5c2.619-.083 5.286-.25 8-.5v1c-1.527-.073-2.527.594-3 2-2.414 1.411-4.081 3.411-5 6-4.194 7.216-4.861 14.55-2 22h5c.219 3.768-1.447 6.102-5 7-.086.996.248 1.829 1 2.5 2.317 2.157 4.984 3.657 8 4.5v1c-.086.996.248 1.829 1 2.5-7.975 1.309-12.642 5.975-14 14a57.288 57.288 0 0 0 7 16v14c-3.181 4.695-7.514 7.529-13 8.5-1.379 3.729-3.045 6.896-5 9.5a135.87 135.87 0 0 1-20 13.5c-2.133 2.648-3.466 5.315-4 8 3.112 7.289.779 10.456-7 9.5a32.525 32.525 0 0 1-10.5 8.5c-1.666-.84-1.833-.34-.5 1.5l-1.5 1.5a4436.133 4436.133 0 0 0-47.5-12.5 124.259 124.259 0 0 1-12.5-5.5c-1.016 1.134-1.683.801-2-1l-1 1a71.306 71.306 0 0 0-8.5-4.5 217.258 217.258 0 0 1-28-19.5c-4.445-5.9-9.778-10.9-16-15a64.678 64.678 0 0 0-2-7c-.824-3.812-1.324-7.812-1.5-12a342.33 342.33 0 0 1 0-37 3.647 3.647 0 0 1 1.5-1c1.778 1.764 3.111 3.764 4 6-1.289-1.748-2.789-2.081-4.5-1a141.832 141.832 0 0 0 2 39 15.83 15.83 0 0 0 3.5 5.5c2.373-.362 4.707.305 7 2a83.07 83.07 0 0 1 7 9.5c2.505.48 4.838 1.48 7 3a17.38 17.38 0 0 0 5 6.5c3.33.412 6.33 1.578 9 3.5a7.248 7.248 0 0 0 2.5-2c1.493 2.06 3.326 2.393 5.5 1a29.825 29.825 0 0 1 2-5c4.322-.438 8.989-.438 14 0 2.464-.09 4.63-.757 6.5-2a4.457 4.457 0 0 0 1.5 2c.064-.865.397-1.865 1-3 6.01-1.397 11.01-4.397 15-9l2 2c4.775-1.708 9.775-2.541 15-2.5-1.388-.889-1.222-1.389.5-1.5 2.482 2.498 4.815 2.498 7 0 1.131 1.104 1.965.771 2.5-1-.372-2.883-.372-5.883 0-9a13.116 13.116 0 0 0 7-1c-.346-1.196-.846-1.196-1.5 0-.667-1-.667-2 0-3 2.243-1.471 4.743-2.471 7.5-3-1.09-1.109-1.09-2.109 0-3 1.62 2.558 3.12 2.558 4.5 0 1.049 1.607 2.549 2.273 4.5 2-.262-1.478.071-2.811 1-4 3.485.189 7.152.189 11 0 .172-4.471 1.006-4.804 2.5-1 1.741-2.041 1.908-4.208.5-6.5 1.635-.54 2.968-.04 4 1.5a4.457 4.457 0 0 0 2-1.5c-1.646-1.555-1.979-3.221-1-5-.753-1.487-1.586-1.654-2.5-.5-1.617-1.036-1.784-2.203-.5-3.5-4-1.333-4-2.667 0-4l-2-1c2.766-2.238 3.766-4.904 3-8l2-6c-.338-5.187-.505-10.687-.5-16.5-2.271-1.759-3.271-3.759-3-6l-6-4c-.456-1.244.044-2.077 1.5-2.5-6.19-6.009-13.523-9.842-22-11.5v-4h-4c.203-1.89-.463-3.39-2-4.5 2.755-3.252 2.089-5.752-2-7.5-1.336.923-2.67 1.423-4 1.5l1-3c-.881-1.471-2.214-2.304-4-2.5-5.762 2.015-10.595.681-14.5-4a8.43 8.43 0 0 1-.5-4l-9-4c-1.562.233-2.895.9-4 2-4.575-.749-8.908-2.082-13-4-.424-3.502.91-5.835 4-7 3.585-.348 6.918.319 10 2 .79.901 1.79 1.568 3 2 0 .667.333 1 1 1 3.978 1.654 7.978 3.32 12 5a18.117 18.117 0 0 0 8-2c3.604-.287 7.271.046 11 1 .268-1.599-.066-2.932-1-4v-2a8.431 8.431 0 0 1 .5-4c6.639 14.3 16.472 25.8 29.5 34.5 1.525 1.009 3.192 1.509 5 1.5.309-4.292 2.642-5.959 7-5a16.77 16.77 0 0 1 6.5 2c1.03-.336 1.53-1.003 1.5-2l15-16c3.961-.788 6.961-2.955 9-6.5 2.059.864 4.725 1.197 8 1a122.324 122.324 0 0 0 13-7A74.443 74.443 0 0 1 402 86.5c1.009-1.525 1.509-3.192 1.5-5a49.393 49.393 0 0 1 11-1Z" style="opacity:1"/><path fill="#f4eee8" d="M430.5 80.5a612.917 612.917 0 0 0-2 35 571.708 571.708 0 0 1-5.5 27l-1 1a72.367 72.367 0 0 1-.5-12v-22c.994-9.486 1.327-19.152 1-29h8Z" style="opacity:1"/><path fill="#274198" d="M252.5 78.5c1.667 1 3 2.333 4 4v1h-3a11.804 11.804 0 0 1-2-3.5c.07-.765.403-1.265 1-1.5Z" style="opacity:1"/><path fill="#ddb7a6" d="M318.5 53.5h1c2.33 22.513 4.663 45.18 7 68a150.347 150.347 0 0 0 23.5-12c.279 1.912-.554 3.246-2.5 4l-20 10c-1.147-.318-1.981-.984-2.5-2a1066.034 1066.034 0 0 1-6.5-68Z" style="opacity:1"/><path fill="#edddd1" d="M386.5 73.5h1v3h13a982.08 982.08 0 0 1-7 8v-3h-9c1.274-2.493 1.94-5.16 2-8Z" style="opacity:1"/><path fill="#f6f9e9" d="M70.5 73.5v21c-.615 3.896-2.281 7.23-5 10h-1c-.998-3.506-.998-7.172 0-11a117.725 117.725 0 0 0 .5-24c1.584-1.361 3.418-2.028 5.5-2v6Z" style="opacity:1"/><path fill="#bb0c05" d="M199.5 74.5c.259 3.568 2.259 4.901 6 4v13l-2 12a79.535 79.535 0 0 0-13-20c-.418-.722-1.084-1.222-2-1.5 3.801-2.3 7.467-4.8 11-7.5Z" style="opacity:1"/><path fill="#24358d" d="M224.5 75.5a20.691 20.691 0 0 1 1 5 72.442 72.442 0 0 1 12 .5c1.126 3.073 2.793 6.24 5 9.5a34.17 34.17 0 0 0-10-1c-.154 2.47-1.154 4.47-3 6 .237-1.291-.096-2.291-1-3 3.985-2.951 3.985-5.951 0-9-1.279-1.468-2.946-2.135-5-2-1.792.134-3.458-.2-5-1 1.391-2.39 3.391-4.057 6-5Z" style="opacity:1"/><path fill="#2261ba" d="M239.5 71.5v1a50.442 50.442 0 0 0-10 .5c-.906 1.7-1.239 3.533-1 5.5a46.426 46.426 0 0 1 16 3.5 62.97 62.97 0 0 1 2 12.5l-4-3v-1c-2.207-3.26-3.874-6.427-5-9.5a72.442 72.442 0 0 0-12-.5 20.691 20.691 0 0 0-1-5c1.051-.722 1.718-1.722 2-3a52.416 52.416 0 0 1 13-1Z" style="opacity:1"/><path fill="#9c0f09" d="M279.5 77.5a44.093 44.093 0 0 1-3 2 36.835 36.835 0 0 1 4 13c0 .667-.333 1-1 1 .278-1.846-.389-3.18-2-4a13.115 13.115 0 0 0-1 7c-.904-.709-1.237-1.709-1-3l-2-7a57.398 57.398 0 0 1 2-9h4Z" style="opacity:1"/><path fill="#d7b7ab" d="M215.5 83.5a20.53 20.53 0 0 0-3 8h-1c-.12-1.086-.787-1.753-2-2-1.573.252-2.906.918-4 2v-6c.768.763 1.268 1.763 1.5 3 1.734-3.573 4.568-5.24 8.5-5Z" style="opacity:1"/><path fill="#900d54" d="M223.5 81.5c2.054-.135 3.721.532 5 2a21.434 21.434 0 0 1 1 7c-4.31.58-8.643.913-13 1-.106-2.579.561-4.912 2-7 1.868-.763 3.535-1.763 5-3Z" style="opacity:1"/><path fill="#3ea5d7" d="M253.5 83.5h1c3.216 3.307 4.883 7.307 5 12 0 .667-.333 1-1 1-2.121.175-4.121-.159-6-1-.815-1.337-1.982-2.337-3.5-3a29.13 29.13 0 0 1 .5-9h4Z" style="opacity:1"/><path fill="#d2a18c" d="M390.5 21.5a93.303 93.303 0 0 1-1 18c-.768-.763-1.268-1.763-1.5-3-1.396 2.798-2.23 5.798-2.5 9a172.544 172.544 0 0 1-12 37 332.765 332.765 0 0 1-17 30l-15 16c-.863.963-1.53.963-2 0a104.61 104.61 0 0 0 6.5-12c.021 5.032 1.521 5.032 4.5 0a192.854 192.854 0 0 0 23.5-39 561.222 561.222 0 0 0 12.5-45 4.934 4.934 0 0 0 .5 3c.858-4.874 2.024-9.54 3.5-14Z" style="opacity:1"/><path fill="#cfb0aa" d="M183.5 69.5c.709.904 1.709 1.237 3 1v1c-.328 12.178.005 24.178 1 36 .343 1.983-.324 3.317-2 4a324.857 324.857 0 0 0-1.5-36 437.11 437.11 0 0 0-14.5 76 20.69 20.69 0 0 1-1 5c.306 2.885-.027 5.552-1 8 .284-1.915-.049-3.581-1-5a129.727 129.727 0 0 0 2-17c2.505-17.05 5.338-34.05 8.5-51a263.258 263.258 0 0 1 6.5-22Z" style="opacity:1"/><path fill="#45485a" d="M254.5 83.5h2c2.696 3.421 4.03 7.421 4 12h-1c-.117-4.693-1.784-8.693-5-12Z" style="opacity:1"/><path fill="#dab29e" d="M279.5 75.5c1.919 7.575 4.752 14.908 8.5 22a34.834 34.834 0 0 1 4.5-12 395.593 395.593 0 0 0 17.5 16 30.137 30.137 0 0 1 3.5 6 577.2 577.2 0 0 1-20.5-20c-2.325 4.585-2.825 9.251-1.5 14v2a2.428 2.428 0 0 1-.5 2 114.075 114.075 0 0 1-9-16c-.232 1.237-.732 2.237-1.5 3a36.835 36.835 0 0 0-4-13 44.093 44.093 0 0 0 3-2v-2Z" style="opacity:1"/><path fill="#929c7d" d="M40.5 73.5c.438-.065.772.101 1 .5a146.735 146.735 0 0 1-7.5 9.5c-.292 1.826-.125 3.66.5 5.5-3.341 11.351-9.841 20.518-19.5 27.5-.182 1.83.318 3.497 1.5 5l-2 2a6.544 6.544 0 0 1-3-3v-1c.864.963 1.53.963 2 0-1.851-3.125-2.351-6.458-1.5-10 8.944-7.779 15.777-17.112 20.5-28l8-8Z" style="opacity:1"/><path fill="#301548" d="M218.5 80.5c1.542.8 3.208 1.134 5 1-1.465 1.237-3.132 2.237-5 3-1.25.077-2.083.744-2.5 2a18.452 18.452 0 0 0-.5 6h9a48.213 48.213 0 0 1-10 3c-1.676-.683-2.343-2.017-2-4a20.53 20.53 0 0 1 3-8 6.544 6.544 0 0 1 3-3Z" style="opacity:1"/><path fill="#e2c0ac" d="M256.5 83.5v-1c5.848 2.515 10.848 6.182 15 11v8c-3.539-1.862-6.539-4.528-9-8a25.88 25.88 0 0 0-1 10c-.667 0-1-.333-1-1v-7c.03-4.579-1.304-8.579-4-12Z" style="opacity:1"/><path fill="#5e1250" d="M228.5 83.5c3.985 3.049 3.985 6.049 0 9h-13a18.452 18.452 0 0 1 .5-6c.417-1.256 1.25-1.923 2.5-2-1.439 2.088-2.106 4.421-2 7 4.357-.087 8.69-.42 13-1a21.434 21.434 0 0 0-1-7Z" style="opacity:1"/><path fill="#010795" d="M242.5 90.5v1c1.504 3 1.004 5.667-1.5 8-.42 3.691-.92 7.358-1.5 11a29.753 29.753 0 0 1-7 2h-2c-.333-1-1-1.667-2-2 .172-.992-.162-1.658-1-2v-8c1.037-1.43 1.704-3.097 2-5 1.846-1.53 2.846-3.53 3-6a34.17 34.17 0 0 1 10 1Z" style="opacity:1"/><path fill="#b19083" d="M119.5 34.5a964.955 964.955 0 0 0-8 34 978.399 978.399 0 0 0-9 43c0-.667-.333-1-1-1 3.961-24.164 8.628-47.83 14-71 .58-2.249 1.913-3.915 4-5Z" style="opacity:1"/><path fill="#c60602" d="M279.5 93.5a13.115 13.115 0 0 1-1 7c-1.611-.82-2.278-2.154-2-4a13.115 13.115 0 0 1 1-7c1.611.82 2.278 2.154 2 4Z" style="opacity:1"/><path fill="#f7eddf" d="M414.5 80.5a49.393 49.393 0 0 0-11 1c.009 1.808-.491 3.475-1.5 5a74.443 74.443 0 0 0-15.5 13.5 122.324 122.324 0 0 1-13 7c-3.275.197-5.941-.136-8-1-2.039 3.545-5.039 5.712-9 6.5a332.765 332.765 0 0 0 17-30c2.04-1.02 4.04-1.02 6 0-.825.886-1.825 1.219-3 1-1.416 7.097-4.416 13.43-9 19 4.728-.521 9.061-2.52 13-6a85.817 85.817 0 0 0 17-14c2.679-.726 5.346-1.56 8-2.5 3.196-.805 6.196-.638 9 .5Z" style="opacity:1"/><path fill="#fcf8f2" d="M383.5 81.5h10v3c-4.707 4.01-9.374 8.01-14 12-2.421 1.715-5.087 2.548-8 2.5a103.536 103.536 0 0 0 12-17.5Z" style="opacity:1"/><path fill="#2660ac" d="M224.5 92.5h4c.904.709 1.237 1.709 1 3-.296 1.903-.963 3.57-2 5v-4c-4.371 1.038-8.705 1.038-13 0v-1a48.213 48.213 0 0 0 10-3Z" style="opacity:1"/><path fill="#bc666a" d="M205.5 91.5v13c-1.425 1.531-2.091 1.198-2-1l2-12Z" style="opacity:1"/><path fill="#093071" d="M246.5 94.5a19.24 19.24 0 0 0 6 1c1.879.841 3.879 1.175 6 1-.734 1.208-1.067 2.541-1 4-3.082-1.681-6.415-2.348-10-2 1.109-.79 2.442-1.29 4-1.5-2.153-.1-3.819-.933-5-2.5Z" style="opacity:1"/><path fill="#f7efe6" d="M190.5 83.5a79.535 79.535 0 0 1 13 20c-.091 2.198.575 2.531 2 1-1.127 3.029-2.627 3.362-4.5 1-3.918 2.722-6.418 6.389-7.5 11-1.189.929-2.522 1.262-4 1-1.149 8.823-1.149 17.489 0 26a271.383 271.383 0 0 0 6 49.5l-.5 2.5a434.61 434.61 0 0 1-9.5-84c1.676-.683 2.343-2.017 2-4v-24h3Z" style="opacity:1"/><path fill="#f8f2e5" d="M291.5 103.5c.934 1.068 1.268 2.401 1 4-3.729-.954-7.396-1.287-11-1a18.117 18.117 0 0 1-8 2c-4.022-1.68-8.022-3.346-12-5a25.88 25.88 0 0 1 1-10c2.461 3.472 5.461 6.138 9 8v-8h4c-.237 1.291.096 2.291 1 3-.278 1.846.389 3.18 2 4a13.115 13.115 0 0 0 1-7c.667 0 1-.333 1-1 .768-.763 1.268-1.763 1.5-3a114.075 114.075 0 0 0 9 16 2.428 2.428 0 0 0 .5-2Z" style="opacity:1"/><path fill="#af5947" d="M415.5 78.5h6v29l-2-27-4-2Z" style="opacity:1"/><path fill="#1eb2fa" d="M227.5 108.5c.838.342 1.172 1.008 1 2l-16-2c-.393-3.43.273-6.596 2-9.5a4.932 4.932 0 0 1 3-.5 16.873 16.873 0 0 0 1 8c.426-4.358 2.759-6.692 7-7-.285 3.329.382 6.329 2 9Z" style="opacity:1"/><path fill="#161e3c" d="M259.5 95.5h1v7c-1.21-.432-2.21-1.099-3-2-.067-1.459.266-2.792 1-4 .667 0 1-.333 1-1Z" style="opacity:1"/><path fill="#174271" d="M211.5 91.5h1c-.343 1.983.324 3.317 2 4v1c-1.466.847-2.3 2.18-2.5 4a40.914 40.914 0 0 0-.5 9v1c-.982-3.462-1.315-7.129-1-11a24.93 24.93 0 0 0 1-8Z" style="opacity:1"/><path fill="#eac4a6" d="M418.5 52.5c.993 8.15 1.326 16.483 1 25h-4v-6a8.435 8.435 0 0 0-4 .5c-1.582 2.085-3.582 3.585-6 4.5 3.154 1.526 6.487 2.192 10 2l4 2v39a1017.267 1017.267 0 0 1-4-24c.321-5.195-.013-10.195-1-15-2.804-1.138-5.804-1.305-9-.5-2.654.94-5.321 1.774-8 2.5 8.944-8.525 15.944-18.525 21-30Z" style="opacity:1"/><path fill="#829172" d="M45.5 68.5c-2.5 3.158-3.833 6.825-4 11l2 15a515.941 515.941 0 0 1-27 27c-1.182-1.503-1.682-3.17-1.5-5 9.659-6.982 16.159-16.149 19.5-27.5-.625-1.84-.792-3.674-.5-5.5 2.61-3.037 5.11-6.203 7.5-9.5-.228-.399-.562-.565-1-.5l2-3 3-2Z" style="opacity:1"/><path fill="#1692e2" d="M214.5 96.5c4.295 1.038 8.629 1.038 13 0v12c-1.618-2.671-2.285-5.671-2-9-4.241.308-6.574 2.642-7 7a16.873 16.873 0 0 1-1-8 4.932 4.932 0 0 0-3 .5c-1.727 2.904-2.393 6.07-2 9.5 0 .667-.333 1-1 1a40.914 40.914 0 0 1 .5-9c.2-1.82 1.034-3.153 2.5-4Z" style="opacity:1"/><path fill="#e3dacd" d="M6.5 75.5a169.418 169.418 0 0 0-1.5 29 30.128 30.128 0 0 0 3 12c.66 1.824 1.827 3.157 3.5 4a6.544 6.544 0 0 0 3 3c.617.111 1.117.444 1.5 1a325.546 325.546 0 0 0 26.5-26c.639.597.972 1.43 1 2.5a653.825 653.825 0 0 0-12 57.5c-.256-2.292.077-4.459 1-6.5a1190.42 1190.42 0 0 1-8-6c-2.577-1.25-5.243-1.584-8-1-9.662 6.93-14.828 16.43-15.5 28.5-.383.556-.883.889-1.5 1v-96c2.991.334 5.324-.666 7-3Z" style="opacity:1"/><path fill="#7c99aa" d="M210.5 99.5c-.315 3.871.018 7.538 1 11-.06.543-.393.876-1 1-1.309-4.149-1.309-8.149 0-12Z" style="opacity:1"/><path fill="#514634" d="M53.5 86.5c.709-.904 1.709-1.237 3-1a110.492 110.492 0 0 1-8 35.5l.5 1.5c2.325-2.001 4.158-4.334 5.5-7a40.346 40.346 0 0 0 10-11h1v1l-11 14c-12.156 15.355-13.989 14.022-5.5-4a182.06 182.06 0 0 0 5.5-26c-.02-1.226-.353-2.226-1-3Z" style="opacity:1"/><path fill="#fbfaf5" d="M211.5 91.5a24.93 24.93 0 0 1-1 8c-1.309 3.851-1.309 7.851 0 12 .607-.124.94-.457 1-1 4.06-.652 6.06 1.015 6 5-1.059 2.055-2.725 3.389-5 4-1.075-1.062-2.075-1.062-3 0 .864 1.697 2.197 2.863 4 3.5a81.057 81.057 0 0 0 20 6.5 8718.24 8718.24 0 0 0 12 5c-5.375.073-10.375-1.26-15-4-1.196.346-1.196.846 0 1.5 6.824 3.909 13.824 4.409 21 1.5a24.935 24.935 0 0 1-.5 7c-3.823 4.629-5.989 9.963-6.5 16a261.12 261.12 0 0 1-7.5 2c-5.64-.427-11.807-.927-18.5-1.5-7.343-1.177-12.01-5.343-14-12.5a22.531 22.531 0 0 1-4-3c-2.099.773-4.432.773-7 0-1.434 1.401-2.767 2.068-4 2-1.149-8.511-1.149-17.177 0-26 1.478.262 2.811-.071 4-1 1.082-4.611 3.582-8.278 7.5-11 1.873 2.362 3.373 2.029 4.5-1v-13c1.094-1.082 2.427-1.748 4-2 1.213.247 1.88.914 2 2Z" style="opacity:1"/><path fill="#101a8e" d="m242.5 91.5 4 3c1.181 1.567 2.847 2.4 5 2.5-1.558.21-2.891.71-4 1.5-3.09 1.165-4.424 3.498-4 7-1.462 6.171-5.129 8.504-11 7a29.753 29.753 0 0 0 7-2c.58-3.642 1.08-7.309 1.5-11 2.504-2.333 3.004-5 1.5-8Z" style="opacity:1"/><path fill="#f7eadb" d="M318.5 53.5a1066.034 1066.034 0 0 0 6.5 68c.519 1.016 1.353 1.682 2.5 2l20-10v3h3c-2.979 5.032-4.479 5.032-4.5 0a104.61 104.61 0 0 1-6.5 12c.47.963 1.137.963 2 0 .03.997-.47 1.664-1.5 2a16.77 16.77 0 0 0-6.5-2c-4.358-.959-6.691.708-7 5-1.808.009-3.475-.491-5-1.5-13.028-8.7-22.861-20.2-29.5-34.5a8.431 8.431 0 0 0-.5 4c-1.325-4.749-.825-9.415 1.5-14a577.2 577.2 0 0 0 20.5 20c.873 2.386 2.373 4.386 4.5 6l.5-4.5a358.699 358.699 0 0 1-3-56.5c1.279-1.215 2.279-.882 3 1Z" style="opacity:1"/><path fill="#e0beb1" d="M421.5 78.5h9v2h-8c.327 9.848-.006 19.514-1 29v-31Z" style="opacity:1"/><path fill="#6d8159" d="M63.5 81.5c-.317 4.202.017 8.202 1 12-.998 3.828-.998 7.494 0 11a40.346 40.346 0 0 1-10 11 703.42 703.42 0 0 1 5-30l4-4Z" style="opacity:1"/><path fill="#fdfdfb" d="M185.5 111.5a434.61 434.61 0 0 0 9.5 84l.5-2.5a271.383 271.383 0 0 1-6-49.5c1.233.068 2.566-.599 4-2 2.568.773 4.901.773 7 0a22.531 22.531 0 0 0 4 3c1.99 7.157 6.657 11.323 14 12.5 6.693.573 12.86 1.073 18.5 1.5a261.12 261.12 0 0 0 7.5-2c.511-6.037 2.677-11.371 6.5-16 .497-2.31.663-4.643.5-7l1-2c4.463-7.39 7.13-15.39 8-24l9 4a8.43 8.43 0 0 0 .5 4c3.905 4.681 8.738 6.015 14.5 4 1.786.196 3.119 1.029 4 2.5l-1 3c1.33-.077 2.664-.577 4-1.5 4.089 1.748 4.755 4.248 2 7.5 1.537 1.11 2.203 2.61 2 4.5h4v4c8.477 1.658 15.81 5.491 22 11.5-1.456.423-1.956 1.256-1.5 2.5l6 4c-.271 2.241.729 4.241 3 6-.005 5.813.162 11.313.5 16.5l-2 6c.766 3.096-.234 5.762-3 8l2 1c-4 1.333-4 2.667 0 4-1.284 1.297-1.117 2.464.5 3.5.914-1.154 1.747-.987 2.5.5-.979 1.779-.646 3.445 1 5a4.457 4.457 0 0 1-2 1.5c-1.032-1.54-2.365-2.04-4-1.5 1.408 2.292 1.241 4.459-.5 6.5-1.494-3.804-2.328-3.471-2.5 1-3.848.189-7.515.189-11 0-.929 1.189-1.262 2.522-1 4-1.951.273-3.451-.393-4.5-2-1.38 2.558-2.88 2.558-4.5 0-1.09.891-1.09 1.891 0 3-2.757.529-5.257 1.529-7.5 3-.667 1-.667 2 0 3 .654-1.196 1.154-1.196 1.5 0a13.116 13.116 0 0 1-7 1c-.372 3.117-.372 6.117 0 9-.535 1.771-1.369 2.104-2.5 1-2.185 2.498-4.518 2.498-7 0-1.722.111-1.888.611-.5 1.5-5.225-.041-10.225.792-15 2.5l-2-2c-3.99 4.603-8.99 7.603-15 9-.603 1.135-.936 2.135-1 3a4.457 4.457 0 0 1-1.5-2c-1.87 1.243-4.036 1.91-6.5 2-5.011-.438-9.678-.438-14 0a29.825 29.825 0 0 0-2 5c-2.174 1.393-4.007 1.06-5.5-1a7.248 7.248 0 0 1-2.5 2c-2.67-1.922-5.67-3.088-9-3.5a17.38 17.38 0 0 1-5-6.5c-2.162-1.52-4.495-2.52-7-3a83.07 83.07 0 0 0-7-9.5c-2.293-1.695-4.627-2.362-7-2a15.83 15.83 0 0 1-3.5-5.5 141.832 141.832 0 0 1-2-39c1.711-1.081 3.211-.748 4.5 1 2.752 6.419 7.419 10.753 14 13 .958.453 1.792 1.119 2.5 2l.5-1a190.071 190.071 0 0 1-15.5-28c-2.166-8.336-4.999-16.336-8.5-24a437.11 437.11 0 0 1 14.5-76 324.857 324.857 0 0 1 1.5 36Z" style="opacity:1"/><path fill="#56c7e1" d="m212.5 108.5 16 2c1 .333 1.667 1 2 2l1 2-8-2c-2.532.364-4.365 1.697-5.5 4-.399-.228-.565-.562-.5-1 .06-3.985-1.94-5.652-6-5v-1c.667 0 1-.333 1-1Z" style="opacity:1"/><path fill="#25aaec" d="M243.5 105.5c4.092 1.918 8.425 3.251 13 4 .732 7.223-.935 13.889-5 20 .959-6.094-1.541-9.761-7.5-11a8.43 8.43 0 0 1-.5-4h-12l-1-2h2c5.871 1.504 9.538-.829 11-7Z" style="opacity:1"/><path fill="#99a37e" d="M59.5 85.5a703.42 703.42 0 0 0-5 30c-1.342 2.666-3.175 4.999-5.5 7l-.5-1.5a110.492 110.492 0 0 0 8-35.5v-2c.996.086 1.83-.248 2.5-1 .483.948.65 1.948.5 3Z" style="opacity:1"/><path fill="#ddb59e" d="M399.5 117.5c1.359 1.509.859 2.176-1.5 2-11.025-1.744-21.858-.91-32.5 2.5a25.55 25.55 0 0 0-6.5 5.5c-.399-.228-.565-.562-.5-1a70.852 70.852 0 0 1 10-10c1.123 1.044 2.456 1.71 4 2 8.918-2.25 17.918-2.583 27-1Z" style="opacity:1"/><path fill="#f4e2d0" d="M399.5 117.5a5.727 5.727 0 0 1 3 1c-4.526 1.937-8.86 4.437-13 7.5-1.141.741-1.141 1.575 0 2.5a14.72 14.72 0 0 1-5 1.5c1.237.232 2.237.732 3 1.5h-4c-7.302-3.336-13.969-2.336-20 3h-1a1136.292 1136.292 0 0 0-4-6 31.84 31.84 0 0 1-4.5 5l-.5-1a325.386 325.386 0 0 1 5-6c-.065.438.101.772.5 1a25.55 25.55 0 0 1 6.5-5.5c10.642-3.41 21.475-4.244 32.5-2.5 2.359.176 2.859-.491 1.5-2Z" style="opacity:1"/><path fill="#f7efe1" d="M415.5 95.5a1017.267 1017.267 0 0 0 4 24 72.367 72.367 0 0 1-.5 12 226.38 226.38 0 0 0-13.5 25c-.736 1.729-2.07 2.729-4 3v-18a12.93 12.93 0 0 0 5-.5 63.527 63.527 0 0 0-19-9.5c-.763-.768-1.763-1.268-3-1.5a14.72 14.72 0 0 0 5-1.5c-1.141-.925-1.141-1.759 0-2.5 4.14-3.063 8.474-5.563 13-7.5 3.915.639 7.415.639 10.5 0a202.869 202.869 0 0 0 2.5-23Z" style="opacity:1"/><path fill="#bff2f1" d="M231.5 115.5h2a45.782 45.782 0 0 1 1 12h-3c-2.652.09-4.985-.576-7-2-3.035-7.133-.702-10.466 7-10Z" style="opacity:1"/><path fill="#8fe5e7" d="M231.5 114.5v1c-7.702-.466-10.035 2.867-7 10-4.553-1.062-8.553-3.062-12-6 2.275-.611 3.941-1.945 5-4-.065.438.101.772.5 1 1.135-2.303 2.968-3.636 5.5-4l8 2Z" style="opacity:1"/><path fill="#e8e0d5" d="M87.5 77.5c1.857 1.76 2.857 4.094 3 7a1116.18 1116.18 0 0 0-7.5 26 69.302 69.302 0 0 0 .5 19 32.462 32.462 0 0 0 8-.5 28.455 28.455 0 0 0 6-9.5c.886.825 1.219 1.825 1 3l-1 8a179.04 179.04 0 0 0-5 16c.17-1.322-.163-2.489-1-3.5-4.814-1.147-8.648-3.647-11.5-7.5l-1.5-9a27.287 27.287 0 0 0 .5-11 83.166 83.166 0 0 0-6.5 17l-2 3c-4.294 2.433-8.96 4.1-14 5 .589-6.985.922-13.985 1-21h-3l11-14a451.723 451.723 0 0 0 22-28Z" style="opacity:1"/><path fill="#38bdee" d="M237.5 114.5h6a8.43 8.43 0 0 0 .5 4c5.959 1.239 8.459 4.906 7.5 11v2l-2 1a55.331 55.331 0 0 0-6.5-13c-1.406-2.244-3.239-3.91-5.5-5Z" style="opacity:1"/><path fill="#88dce1" d="M233.5 115.5c6.667 3.663 10.001 9.33 10 17h6c-1.014 1.174-2.347 1.84-4 2a8718.24 8718.24 0 0 1-12-5l-2-2h3a45.782 45.782 0 0 0-1-12Z" style="opacity:1"/><path fill="#1a4883" d="M260.5 107.5c-.87 8.61-3.537 16.61-8 24h-1v-2c4.065-6.111 5.732-12.777 5-20 1.105-1.1 2.438-1.767 4-2Z" style="opacity:1"/><path fill="#5cd0e8" d="M231.5 115.5v-1h6c2.261 1.09 4.094 2.756 5.5 5 2.715 4 4.881 8.334 6.5 13h-6c.001-7.67-3.333-13.337-10-17h-2Z" style="opacity:1"/><path fill="#8db4b7" d="M212.5 119.5c3.447 2.938 7.447 4.938 12 6 2.015 1.424 4.348 2.09 7 2l2 2a81.057 81.057 0 0 1-20-6.5c-1.803-.637-3.136-1.803-4-3.5.925-1.062 1.925-1.062 3 0Z" style="opacity:1"/><path fill="#530702" d="M383.5 131.5c.111.617.444 1.117 1 1.5a34.041 34.041 0 0 0-1.5 7.5l-1-1c-.5 1.167-1.333 2-2.5 2.5-2.31.497-4.643.663-7 .5.351-3.304.684-6.637 1-10a25.879 25.879 0 0 1 10-1Z" style="opacity:1"/><path fill="#4e1413" d="M383.5 131.5h4a63.527 63.527 0 0 1 19 9.5 12.93 12.93 0 0 1-5 .5v18a1795.314 1795.314 0 0 1-7 8c.206-6.896-.461-13.563-2-20-1.475-1.91-3.475-3.076-6-3.5a60.931 60.931 0 0 0-11-.5h-16c1.419-.951 3.085-1.284 5-1h8c2.357.163 4.69-.003 7-.5 1.167-.5 2-1.333 2.5-2.5l1 1a34.041 34.041 0 0 1 1.5-7.5c-.556-.383-.889-.883-1-1.5Z" style="opacity:1"/><path fill="#f0eae4" d="M53.5 86.5c.647.774.98 1.774 1 3a182.06 182.06 0 0 1-5.5 26c-8.489 18.022-6.656 19.355 5.5 4h3a288.335 288.335 0 0 1-1 21c5.04-.9 9.706-2.567 14-5-14.24 47.117-20.906 95.45-20 145a143.161 143.161 0 0 0-4-10c-.5-7.987-.833-15.987-1-24a833.81 833.81 0 0 0 2.5-53 5927.305 5927.305 0 0 0 6.5-62c-3.815-.605-7.482-.605-11 0-.124 3.751-2.124 5.751-6 6a640.993 640.993 0 0 1 8-38 8.434 8.434 0 0 1 .5-4 98.343 98.343 0 0 1 7.5-9Z" style="opacity:1"/><path fill="#b9bebb" d="M245.5 134.5c1.653-.16 2.986-.826 4-2l2-1h1l-1 2c-7.176 2.909-14.176 2.409-21-1.5-1.196-.654-1.196-1.154 0-1.5 4.625 2.74 9.625 4.073 15 4Z" style="opacity:1"/><path fill="#b07866" d="m419.5 80.5 2 27v24a325.808 325.808 0 0 0-3 32l-2 8c-.934-1.068-1.268-2.401-1-4a221.387 221.387 0 0 0 3.5-33 387.056 387.056 0 0 1-13 23c-.399-.228-.565-.562-.5-1a226.38 226.38 0 0 1 13.5-25c.499-3.986.666-7.986.5-12v-39Z" style="opacity:1"/><path fill="#f2ebe6" d="M92.5 146.5c-3.547 20.327-7.047 40.66-10.5 61a976.925 976.925 0 0 0-3.5 44v20c-3.25-42.534-3.583-85.201-1-128l-1-14a512.469 512.469 0 0 1-4 3 83.166 83.166 0 0 1 6.5-17c.581 3.69.415 7.356-.5 11l1.5 9c2.852 3.853 6.686 6.353 11.5 7.5.837 1.011 1.17 2.178 1 3.5Z" style="opacity:1"/><path fill="#a20b05" d="M362.5 134.5h1c2.344 2.218 2.677 4.885 1 8-1.915-.284-3.581.049-5 1h-1c-1.915.284-3.581-.049-5-1l9-8Z" style="opacity:1"/><path fill="#8e150b" d="M383.5 131.5a25.879 25.879 0 0 0-10 1 827.245 827.245 0 0 1-1 10h-8c1.677-3.115 1.344-5.782-1-8 6.031-5.336 12.698-6.336 20-3Z" style="opacity:1"/><path fill="#f9f4f3" d="M46.5 270.5a362.694 362.694 0 0 0 1.5 30 218.46 218.46 0 0 0-2.5-6 366.05 366.05 0 0 1-11-60 773.088 773.088 0 0 1 0-77 205.99 205.99 0 0 1 3-20c3.876-.249 5.876-2.249 6-6 3.518-.605 7.185-.605 11 0a5927.305 5927.305 0 0 1-6.5 62 833.81 833.81 0 0 1-2.5 53c.167 8.013.5 16.013 1 24Z" style="opacity:1"/><path fill="#f9f5f4" d="M78.5 271.5c.047 15.847 2.714 31.18 8 46 3.283 7.27 1.95 8.437-4 3.5-7.833-6.5-15-13.667-21.5-21.5a96.99 96.99 0 0 1-9-14 2.427 2.427 0 0 0-.5 2c-.934-1.068-1.268-2.401-1-4v-3c-.906-49.55 5.76-97.883 20-145l2-3a512.469 512.469 0 0 0 4-3l1 14c-2.583 42.799-2.25 85.466 1 128Z" style="opacity:1"/><path fill="#dccabf" d="M428.5 115.5a201.286 201.286 0 0 1-8.5 47c-.383.556-.883.889-1.5 1a325.808 325.808 0 0 1 3-32 72.367 72.367 0 0 0 .5 12l1-1a571.708 571.708 0 0 0 5.5-27Z" style="opacity:1"/><path fill="#aa3a48" d="M353.5 142.5c1.419.951 3.085 1.284 5 1v1c-2.714.25-5.381.417-8 .5a10.515 10.515 0 0 1 3-2.5Z" style="opacity:1"/><path fill="#2c87f0" d="M358.5 143.5h17l2 2c.233 1.562.9 2.895 2 4h-7a21.435 21.435 0 0 0-7-1 18.453 18.453 0 0 1-6-.5c-.556-.383-.889-.883-1-1.5v-3Z" style="opacity:1"/><path fill="#f4eef9" d="M375.5 143.5a60.931 60.931 0 0 1 11 .5c2.525.424 4.525 1.59 6 3.5.422 4.222-.245 8.222-2 12-1.209-2.441-2.876-4.441-5-6-1.645-3.645-4.312-6.312-8-8l-2-2Z" style="opacity:1"/><path fill="#3e3c5a" d="M377.5 145.5c3.688 1.688 6.355 4.355 8 8a197.52 197.52 0 0 1 2 16l-4-2v-6c1.602-4.831.269-8.831-4-12-1.1-1.105-1.767-2.438-2-4Z" style="opacity:1"/><path fill="#3d1a4e" d="M355.5 147.5a4.934 4.934 0 0 1-.5 3c-2.251 1.53-3.751 3.53-4.5 6v-3c.919-2.589 2.586-4.589 5-6Z" style="opacity:1"/><path fill="#3b9dd7" d="M372.5 149.5h7c4.269 3.169 5.602 7.169 4 12-8.439.557-12.106-3.443-11-12Z" style="opacity:1"/><path fill="#1e2d99" d="M358.5 146.5c.111.617.444 1.117 1 1.5 1.973.495 3.973.662 6 .5a60.495 60.495 0 0 1 4 8h-5c1.241-5.43-1.092-7.763-7-7-.237-1.291.096-2.291 1-3Z" style="opacity:1"/><path fill="#4d1d78" d="M358.5 145.5v1c-.904.709-1.237 1.709-1 3 5.908-.763 8.241 1.57 7 7l-3 2c-3.462-.982-7.129-1.315-11-1v-1c.749-2.47 2.249-4.47 4.5-6a4.934 4.934 0 0 0 .5-3c.473-1.406 1.473-2.073 3-2Z" style="opacity:1"/><path fill="#041296" d="M364.5 156.5h5c.969.809 1.802 1.809 2.5 3 .499 3.652.665 7.318.5 11a4.934 4.934 0 0 1-.5 3 31.447 31.447 0 0 0-4.5 5h-4l-3-2c-2.293-4.813-2.627-9.813-1-15 .901-.79 1.568-1.79 2-3l3-2Z" style="opacity:1"/><path fill="#fcfaf8" d="M428.5-.5h13v169c-11.3 14.291-24.633 26.624-40 37l-1-1a150.792 150.792 0 0 0 16-33l2-8c.617-.111 1.117-.444 1.5-1a201.286 201.286 0 0 0 8.5-47 612.917 612.917 0 0 1 2-35v-2a916.09 916.09 0 0 0-2-79Z" style="opacity:1"/><path fill="#1c70bd" d="M350.5 157.5c3.871-.315 7.538.018 11 1-.432 1.21-1.099 2.21-2 3 .219-1.175-.114-2.175-1-3-1.708 2.191-3.708 2.524-6 1a7.248 7.248 0 0 0-2.5 2 49.555 49.555 0 0 0-1.5 13c-1.617-5.854-.951-11.521 2-17Z" style="opacity:1"/><path fill="#e7d0db" d="M392.5 147.5c1.539 6.437 2.206 13.104 2 20 .284 1.915-.049 3.581-1 5-.37-4.854-2.37-5.854-6-3a197.52 197.52 0 0 0-2-16c2.124 1.559 3.791 3.559 5 6 1.755-3.778 2.422-7.778 2-12Z" style="opacity:1"/><path fill="#f1ebe6" d="M31.5 158.5a505.675 505.675 0 0 0-17 53.5c.028 1.07.361 1.903 1 2.5.172.992-.162 1.658-1 2 .065-.438-.101-.772-.5-1a165.743 165.743 0 0 0-5 28c-1.777-2.29-3.944-3.957-6.5-5-1.528 1.302-2.528 2.969-3 5v-69c.617-.111 1.117-.444 1.5-1 .672-12.07 5.838-21.57 15.5-28.5 2.757-.584 5.423-.25 8 1 2.697 2.04 5.363 4.04 8 6-.923 2.041-1.256 4.208-1 6.5Z" style="opacity:1"/><path fill="#ba9282" d="M97.5 130.5c-.23 9.889-1.23 19.555-3 29-.193-3.949-.693-3.949-1.5 0-3.002 17.353-6.002 34.687-9 52a1536.61 1536.61 0 0 0-2.5 52 216.926 216.926 0 0 1 1 24 1406.789 1406.789 0 0 0-4-36 976.925 976.925 0 0 1 3.5-44c3.453-20.34 6.953-40.673 10.5-61a179.04 179.04 0 0 1 5-16Z" style="opacity:1"/><path fill="#f8eddf" d="M168.5 156.5c.997-.03 1.664.47 2 1.5a151.944 151.944 0 0 0 7.5 21.5 26812.82 26812.82 0 0 0 12.5 23c-6.581-2.247-11.248-6.581-14-13-.889-2.236-2.222-4.236-4-6a3.647 3.647 0 0 0-1.5 1 342.33 342.33 0 0 0 0 37c.176 4.188.676 8.188 1.5 12 .191 8.34.524 16.674 1 25-3.915-2.487-6.915-5.82-9-10-.513-4.29.487-8.123 3-11.5a30.293 30.293 0 0 1-3-8.5 54.398 54.398 0 0 0 4.5-14l.5-11.5a199.628 199.628 0 0 1-2-31.5v-7c.973-2.448 1.306-5.115 1-8Z" style="opacity:1"/><path fill="#1fabee" d="M359.5 161.5c-1.627 5.187-1.293 10.187 1 15a21.435 21.435 0 0 1-7-1h-5v-1a49.555 49.555 0 0 1 1.5-13 7.248 7.248 0 0 1 2.5-2c2.292 1.524 4.292 1.191 6-1 .886.825 1.219 1.825 1 3Z" style="opacity:1"/><path fill="#0b57af" d="M365.5 148.5a21.435 21.435 0 0 1 7 1c-1.106 8.557 2.561 12.557 11 12v6h-6c.744-3.45-.59-5.116-4-5v8h-1a60.931 60.931 0 0 0-.5-11c-.698-1.191-1.531-2.191-2.5-3a60.495 60.495 0 0 0-4-8Z" style="opacity:1"/><path fill="#fcfaf5" d="M164.5 174.5a3374.826 3374.826 0 0 0-3 62 4756.777 4756.777 0 0 1 3 44 21.127 21.127 0 0 1-1 9 85.223 85.223 0 0 0-16-15 2.428 2.428 0 0 0-.5-2 175.1 175.1 0 0 1-19.5-19c.086-.996-.248-1.829-1-2.5l3.5-5.5a550.602 550.602 0 0 1 8-21c.383 2.973-.117 5.806-1.5 8.5.27 6.74-2.063 12.74-7 18 2.614.417 4.614-.583 6-3a1579.18 1579.18 0 0 0 11.5-43.5c1.999-4.655 3.999-9.321 6-14a36.167 36.167 0 0 0 8-12 50.413 50.413 0 0 1 2.5-13 21.127 21.127 0 0 1 1 9Z" style="opacity:1"/><path fill="#798498" d="M350.5 153.5v4c-2.951 5.479-3.617 11.146-2 17v1c-2.861-7.45-2.194-14.784 2-22Z" style="opacity:1"/><path fill="#a91a0c" d="M401.5 159.5a86.734 86.734 0 0 1 2 12c-1.524-.674-2.858-1.674-4-3-4.415 4.576-5.748 9.909-4 16l-2 4c-.656.778-1.489 1.444-2.5 2-.765-.07-1.265-.403-1.5-1 2.567-5.369 3.9-11.036 4-17 .951-1.419 1.284-3.085 1-5 2.392-2.718 4.726-5.385 7-8Z" style="opacity:1"/><path fill="#288ada" d="M377.5 167.5c-1.105 1.1-2.438 1.767-4 2v-7c3.41-.116 4.744 1.55 4 5Z" style="opacity:1"/><path fill="#c51208" d="M403.5 171.5c1.602 3.739 2.602 7.739 3 12-3.769-.256-7.436.077-11 1-1.748-6.091-.415-11.424 4-16 1.142 1.326 2.476 2.326 4 3Z" style="opacity:1"/><path fill="#ad7e71" d="M101.5 110.5c.667 0 1 .333 1 1v6a426.488 426.488 0 0 0-6 50c-1.591 10.458-2.258 21.124-2 32a578.514 578.514 0 0 0 0 68 148.319 148.319 0 0 1 3 19c-.02 3.768-1.02 4.434-3 2 0-.667-.333-1-1-1a292.327 292.327 0 0 0-2-24c-.766-34.738.234-69.405 3-104 1.77-9.445 2.77-19.111 3-29l1-8c1.368-3.798 2.368-7.798 3-12Z" style="opacity:1"/><path fill="#2cafeb" d="M372.5 170.5h1c2.391 5.699 6.724 8.032 13 7 .237 1.291-.096 2.291-1 3-3.956-2.074-4.956-2.408-3-1-.751 6.349-2.418 12.349-5 18a60.931 60.931 0 0 0-.5-11 113.494 113.494 0 0 1-9.5-8 31.447 31.447 0 0 1 4.5-5 4.934 4.934 0 0 0 .5-3Z" style="opacity:1"/><path fill="#a17b71" d="M42.5 98.5c.06-.543.393-.876 1-1 .682.743 1.349 1.41 2 2a640.993 640.993 0 0 0-8 38 205.99 205.99 0 0 0-3 20c-1.525 13.132-2.192 26.465-2 40l.5 28c.18 3.195.68 6.195 1.5 9a366.05 366.05 0 0 0 11 60c0 1.333-.667 2-2 2a448.455 448.455 0 0 1-13-88c-.017-14.69.15-29.356.5-44a463.046 463.046 0 0 0-11 35 128.43 128.43 0 0 0-.5 16 2565.232 2565.232 0 0 0 4 41c-1.518-3.034-2.351-6.367-2.5-10a553.586 553.586 0 0 1-4-38 20.093 20.093 0 0 0-1.5 6c-.639-.597-.972-1.43-1-2.5a505.675 505.675 0 0 1 17-53.5 653.825 653.825 0 0 1 12-57.5c-.028-1.07-.361-1.903-1-2.5Z" style="opacity:1"/><path fill="#aaebec" d="M353.5 175.5a21.435 21.435 0 0 0 7 1l3 2c4.46 3.081 6.127 7.414 5 13-1.459-.067-2.792.266-4 1a32.894 32.894 0 0 1-7-3 45.728 45.728 0 0 0-9-7c3.553-.898 5.219-3.232 5-7Z" style="opacity:1"/><path fill="#91a9b0" d="M348.5 182.5a45.728 45.728 0 0 1 9 7c-3.016-.843-5.683-2.343-8-4.5-.752-.671-1.086-1.504-1-2.5Z" style="opacity:1"/><path fill="#d0b6af" d="M441.5 190.5v6c-2.088 1.836-3.421 4.169-4 7-1.037 1.43-1.704 3.097-2 5-.951-7.515-1.118-15.182-.5-23a60.691 60.691 0 0 0-3.5 10c0-.667-.333-1-1-1-.016-5.967 2.151-10.967 6.5-15a112.66 112.66 0 0 0 0 19c1.428-2.89 2.928-5.556 4.5-8Z" style="opacity:1"/><path fill="#2d75b3" d="M385.5 180.5c-1.439 7.986-4.439 15.32-9 22-1.527.073-2.527-.594-3-2 1.93-.271 3.264-1.271 4-3 2.582-5.651 4.249-11.651 5-18-1.956-1.408-.956-1.074 3 1Z" style="opacity:1"/><path fill="#eae0d0" d="M415.5 167.5c-2.771 12.218-7.771 23.551-15 34h-8v-5l1-8 2-4c3.564-.923 7.231-1.256 11-1-.398-4.261-1.398-8.261-3-12a86.734 86.734 0 0 0-2-12c1.93-.271 3.264-1.271 4-3-.065.438.101.772.5 1a387.056 387.056 0 0 0 13-23 221.387 221.387 0 0 1-3.5 33Z" style="opacity:1"/><path fill="#ccb2a8" d="M415.5 167.5c-.268 1.599.066 2.932 1 4a150.792 150.792 0 0 1-16 33l1 1c15.367-10.376 28.7-22.709 40-37v4c-9.714 10.556-20.38 20.223-32 29a61.964 61.964 0 0 1-13.5 9l-1.5-1a71.771 71.771 0 0 0 6-8c7.229-10.449 12.229-21.782 15-34Z" style="opacity:1"/><path fill="#ddcbc9" d="M34.5 157.5a773.088 773.088 0 0 0 0 77c-.82-2.805-1.32-5.805-1.5-9l-.5-28c-.192-13.535.475-26.868 2-40Z" style="opacity:1"/><path fill="#e6d3c0" d="M169.5 151.5c3.501 7.664 6.334 15.664 8.5 24a190.071 190.071 0 0 0 15.5 28l-.5 1c-.708-.881-1.542-1.547-2.5-2a26812.82 26812.82 0 0 1-12.5-23 151.944 151.944 0 0 1-7.5-21.5c-.336-1.03-1.003-1.53-2-1.5a20.69 20.69 0 0 0 1-5Z" style="opacity:1"/><path fill="#faf7ef" d="M357.5 190.5c2.327 2.884 5.327 4.884 9 6 .886.825 1.219 1.825 1 3 3.05-.577 5.05.59 6 3.5a4.934 4.934 0 0 0 3 .5c2.117 2.155 4.784 3.155 8 3a991.786 991.786 0 0 1-24.5 55c-20.882 22.855-44.715 42.022-71.5 57.5a80.347 80.347 0 0 0-11 3.5 194.528 194.528 0 0 1-20.5-6 2.428 2.428 0 0 0-.5 2 20.69 20.69 0 0 0-5-1 93.206 93.206 0 0 0-19-12 208.536 208.536 0 0 1-35-26 179.568 179.568 0 0 1-24-21 731.366 731.366 0 0 1-1-25 64.678 64.678 0 0 1 2 7c6.222 4.1 11.555 9.1 16 15a217.258 217.258 0 0 0 28 19.5 71.306 71.306 0 0 1 8.5 4.5l1-1c.317 1.801.984 2.134 2 1a124.259 124.259 0 0 0 12.5 5.5 4436.133 4436.133 0 0 1 47.5 12.5l1.5-1.5c-1.333-1.84-1.166-2.34.5-1.5a32.525 32.525 0 0 0 10.5-8.5c7.779.956 10.112-2.211 7-9.5.534-2.685 1.867-5.352 4-8a135.87 135.87 0 0 0 20-13.5c1.955-2.604 3.621-5.771 5-9.5 5.486-.971 9.819-3.805 13-8.5v-14a57.288 57.288 0 0 1-7-16c1.358-8.025 6.025-12.691 14-14-.752-.671-1.086-1.504-1-2.5Z" style="opacity:1"/><path fill="#94989a" d="M357.5 190.5v-1a32.894 32.894 0 0 0 7 3l9 8c.473 1.406 1.473 2.073 3 2v1a4.934 4.934 0 0 1-3-.5c-.95-2.91-2.95-4.077-6-3.5.219-1.175-.114-2.175-1-3-3.673-1.116-6.673-3.116-9-6Z" style="opacity:1"/><path fill="#53ccea" d="M363.5 178.5h4a113.494 113.494 0 0 0 9.5 8c.499 3.652.665 7.318.5 11-.736 1.729-2.07 2.729-4 3l-9-8c1.208-.734 2.541-1.067 4-1 1.127-5.586-.54-9.919-5-13Z" style="opacity:1"/><path fill="#f9f4f3" d="M441.5 172.5v18c-1.572 2.444-3.072 5.11-4.5 8a112.66 112.66 0 0 1 0-19c-4.349 4.033-6.516 9.033-6.5 15l-9 42a273.91 273.91 0 0 0-8 25 521.413 521.413 0 0 1-29.5 69 225.4 225.4 0 0 1 7-23 95.43 95.43 0 0 0 3.5-18 975.272 975.272 0 0 0 14-74c2.133-4.437 2.466-9.103 1-14 11.62-8.777 22.286-18.444 32-29Z" style="opacity:1"/><path fill="#d0b4a8" d="M96.5 167.5c.31 10.879-.357 21.546-2 32-.258-10.876.409-21.542 2-32Z" style="opacity:1"/><path fill="#d8c6b1" d="M30.5 208.5c-.904.709-1.237 1.709-1 3a8.43 8.43 0 0 0-4 .5 30.126 30.126 0 0 1-6 3.5c-.166-5.344 0-10.677.5-16a463.046 463.046 0 0 1 11-35c-.35 14.644-.517 29.31-.5 44Z" style="opacity:1"/><path fill="#f1ebe6" d="M106.5 102.5c-.06 29.619 4.106 58.619 12.5 87a67.876 67.876 0 0 1 7 12 13.92 13.92 0 0 0 4 3c2.027 9.594.194 18.428-5.5 26.5v6a56.149 56.149 0 0 0-4 9.5c-1.743-1.936-3.743-2.27-6-1a452.048 452.048 0 0 0-5.5 16l-1-2a732.969 732.969 0 0 1-1-76 1778.068 1778.068 0 0 0-11.5 75 870.829 870.829 0 0 1-1-59c1.643-10.454 2.31-21.121 2-32a426.488 426.488 0 0 1 6-50 210.696 210.696 0 0 1 4-15Z" style="opacity:1"/><path fill="#cabb9f" d="M94.5 159.5a1021.738 1021.738 0 0 0-3 104c-3.21.488-6.044-.179-8.5-2-.278.916-.778 1.582-1.5 2a1536.61 1536.61 0 0 1 2.5-52c2.998-17.313 5.998-34.647 9-52 .807-3.949 1.307-3.949 1.5 0Z" style="opacity:1"/><path fill="#fcfbfb" d="M377.5 167.5h6l4 2c3.63-2.854 5.63-1.854 6 3-.1 5.964-1.433 11.631-4 17-2.885 3.581-2.552 4.247 1 2l1 1.5a249.96 249.96 0 0 0-7.5 40.5c-4.051 17.771-12.051 33.438-24 47a65.155 65.155 0 0 1-13.5 10 701.656 701.656 0 0 1-5 3.5c1.756.14 3.422-.36 5-1.5-2.241 19.183-6.907 37.85-14 56a858.432 858.432 0 0 0-26-3c-1.833-.085-3.166-.752-4-2 10.562-12.867 19.229-26.534 26-41a838.994 838.994 0 0 1-49 24.5c-3.211.798-6.211.298-9-1.5a55.884 55.884 0 0 0-5.5 13c-.671.752-1.504 1.086-2.5 1h-7a406.972 406.972 0 0 1-2-20c1.291.237 2.291-.096 3-1a2.428 2.428 0 0 1 .5-2 194.528 194.528 0 0 0 20.5 6 80.347 80.347 0 0 1 11-3.5c26.785-15.478 50.618-34.645 71.5-57.5a991.786 991.786 0 0 0 24.5-55c-3.216.155-5.883-.845-8-3v-1c4.561-6.68 7.561-14.014 9-22 .904-.709 1.237-1.709 1-3-6.276 1.032-10.609-1.301-13-7v-1c1.562-.233 2.895-.9 4-2Z" style="opacity:1"/><path fill="#e6d7cd" d="M435.5 208.5c-.406 10.531-2.406 20.698-6 30.5a31.881 31.881 0 0 1 1 8.5 369.877 369.877 0 0 0-5-21.5 274.194 274.194 0 0 0 6-30.5 60.691 60.691 0 0 1 3.5-10c-.618 7.818-.451 15.485.5 23Z" style="opacity:1"/><path fill="#fefdfd" d="M23.5 256.5a240.688 240.688 0 0 0 10 42 62.926 62.926 0 0 0 4 8 106.399 106.399 0 0 0 7-9 215.523 215.523 0 0 1 7.5 18 583.693 583.693 0 0 1-3.5-29.5l.5-3.5c.383.556.883.889 1.5 1-.268 1.599.066 2.932 1 4 7.442 13.284 17.275 24.617 29.5 34a168.44 168.44 0 0 0 5.5 17v3c-3.293-.241-6.293.592-9 2.5a117.555 117.555 0 0 1-21 14 14.694 14.694 0 0 0-3 3.5 253.784 253.784 0 0 0 25-16.5 19.934 19.934 0 0 1 9-2.5h6c4.1-.263 8.1.07 12 1a20.69 20.69 0 0 1 5 1c6.344 2.238 12.678 4.905 19 8 .03.997-.47 1.664-1.5 2-2.835-.733-5.668-1.4-8.5-2h-2c-.342-.838-1.008-1.172-2-1-11.437-.817-22.77.683-34 4.5a309.255 309.255 0 0 0-16 12.5 156.633 156.633 0 0 0-29.5 26 8.435 8.435 0 0 0-.5 4c-4.258.128-7.591 1.795-10 5-8.18 3.543-16.848 5.543-26 6v-166c.472-2.031 1.472-3.698 3-5a107.111 107.111 0 0 0 8.5 9 200.013 200.013 0 0 1 3.5-31c.838-.342 1.172-1.008 1-2a20.093 20.093 0 0 1 1.5-6 553.586 553.586 0 0 0 4 38c.149 3.633.982 6.966 2.5 10Z" style="opacity:1"/><path fill="#e8ded3" d="M195.5 196.5a426.867 426.867 0 0 0 14.5 41c-7.519-12.723-12.352-26.389-14.5-41Z" style="opacity:1"/><path fill="#d7c8b4" d="M392.5 196.5v5h8a71.771 71.771 0 0 1-6 8l1.5 1a61.964 61.964 0 0 0 13.5-9c1.466 4.897 1.133 9.563-1 14a12.93 12.93 0 0 0-.5-5 7.293 7.293 0 0 0-2 3 1491.646 1491.646 0 0 1-6 38 193.151 193.151 0 0 1-3.5 12 13.116 13.116 0 0 1-7-1 971.34 971.34 0 0 1-9-12 323.292 323.292 0 0 0 5.5-17 533.762 533.762 0 0 1 6.5-37Z" style="opacity:1"/><path fill="#c9aaa9" d="M14.5 216.5a200.013 200.013 0 0 0-3.5 31 107.111 107.111 0 0 1-8.5-9c2.556 1.043 4.723 2.71 6.5 5a165.743 165.743 0 0 1 5-28c.399.228.565.562.5 1Z" style="opacity:1"/><path fill="#cdb99e" d="M30.5 208.5a448.455 448.455 0 0 0 13 88c-2.486 2.964-5.486 3.631-9 2-3.691-14.103-7.358-28.103-11-42a2565.232 2565.232 0 0 1-4-41 30.126 30.126 0 0 0 6-3.5 8.43 8.43 0 0 1 4-.5c-.237-1.291.096-2.291 1-3Z" style="opacity:1"/><path fill="#ede5de" d="M437.5 203.5a728.276 728.276 0 0 1-2 66c-2.269-7.084-3.935-14.418-5-22a31.881 31.881 0 0 0-1-8.5c3.594-9.802 5.594-19.969 6-30.5.296-1.903.963-3.57 2-5Z" style="opacity:1"/><path fill="#bd9488" d="M120.5 246.5c2 2.667 4.333 5 7 7a175.1 175.1 0 0 0 19.5 19c.464.594.631 1.261.5 2-.06.543-.393.876-1 1a31.147 31.147 0 0 0-2-2 134.675 134.675 0 0 0-20-19c-1-1.667-2.333-3-4-4-1.233-3.073-2.733-3.406-4.5-1a145.286 145.286 0 0 0-5.5 21.5l-3 1.5a1041.63 1041.63 0 0 0-2-12 349.078 349.078 0 0 0-2.5-31 801.267 801.267 0 0 0-4.5 39v27c-1.322.17-2.489-.163-3.5-1a18.437 18.437 0 0 1-.5-6c1.98 2.434 2.98 1.768 3-2a148.319 148.319 0 0 0-3-19c.977-2.787 1.31-5.787 1-9a1778.068 1778.068 0 0 1 11.5-75 732.969 732.969 0 0 0 1 76l1 2a452.048 452.048 0 0 1 5.5-16c2.257-1.27 4.257-.936 6 1Z" style="opacity:1"/><path fill="#f3dabd" d="M167.5 171.5a199.628 199.628 0 0 0 2 31.5l-.5 11.5a54.398 54.398 0 0 1-4.5 14 30.293 30.293 0 0 0 3 8.5c-2.513 3.377-3.513 7.21-3 11.5a482.15 482.15 0 0 1 3-77Z" style="opacity:1"/><path fill="#ad8a87" d="m393.5 188.5-1 8a533.762 533.762 0 0 0-6.5 37 323.292 323.292 0 0 1-5.5 17l-6 13a60.147 60.147 0 0 1-10 15 117.713 117.713 0 0 1-14 12c-1.461 1.186-2.795 1.186-4 0a65.155 65.155 0 0 0 13.5-10c11.949-13.562 19.949-29.229 24-47a249.96 249.96 0 0 1 7.5-40.5l-1-1.5c-3.552 2.247-3.885 1.581-1-2 .235.597.735.93 1.5 1 1.011-.556 1.844-1.222 2.5-2Z" style="opacity:1"/><path fill="#dcaf9f" d="M297.5 241.5a32.462 32.462 0 0 1 8 .5c2.202 2.882 3.369 6.049 3.5 9.5l-3.5-7-4.5-1a102.606 102.606 0 0 1-12.5 1.5c3.218-.9 6.218-2.067 9-3.5Z" style="opacity:1"/><path fill="#f5f3ee" d="M441.5 196.5v110c-1.63-1.526-2.463-3.526-2.5-6l-1-17c-.406-3.242-1.239-6.242-2.5-9v-5a728.276 728.276 0 0 0 2-66c.579-2.831 1.912-5.164 4-7Z" style="opacity:1"/><path fill="#cfb8a6" d="M105.5 260.5a8.43 8.43 0 0 1-.5 4c-1.699-.906-3.533-1.239-5.5-1 .284 1.915-.049 3.581-1 5a801.267 801.267 0 0 1 4.5-39 349.078 349.078 0 0 1 2.5 31Z" style="opacity:1"/><path fill="#aa7d74" d="M430.5 194.5c.667 0 1 .333 1 1a274.194 274.194 0 0 1-6 30.5 369.877 369.877 0 0 1 5 21.5c1.065 7.582 2.731 14.916 5 22v5a4.934 4.934 0 0 1-.5 3l-6-26a340.117 340.117 0 0 0 2.5 45 12.93 12.93 0 0 1-.5 5c-.191-2.208-.691-4.208-1.5-6a1014.107 1014.107 0 0 1-3.5-58c-1.014-5.167-2.18-5.167-3.5 0-.667 0-1-.333-1-1l9-42Z" style="opacity:1"/><path fill="#e0d7d3" d="M120.5 250.5c1.667 1 3 2.333 4 4-1.138 2.804-1.305 5.804-.5 9 1.989 7.319 3.989 14.653 6 22a145.104 145.104 0 0 0 11.5 16.5 10.098 10.098 0 0 0 6 1.5 126.59 126.59 0 0 1-12 4 4.934 4.934 0 0 1-3-.5 115.754 115.754 0 0 1-10-31.5c-2.246-8.358-2.913-16.691-2-25Z" style="opacity:1"/><path fill="#be9b90" d="M408.5 215.5a975.272 975.272 0 0 1-14 74 6.547 6.547 0 0 0-3 3c-.667 0-1-.333-1-1a48.715 48.715 0 0 0 3-12c2.26-4.973 3.26-10.306 3-16a193.151 193.151 0 0 0 3.5-12 1491.646 1491.646 0 0 0 6-38 7.293 7.293 0 0 1 2-3 12.93 12.93 0 0 1 .5 5Z" style="opacity:1"/><path fill="#dbbeb1" d="M94.5 199.5c-.33 19.84.003 39.507 1 59 .31 3.213-.023 6.213-1 9a578.514 578.514 0 0 1 0-68Z" style="opacity:1"/><path fill="#f1ede7" d="M124.5 254.5a134.675 134.675 0 0 1 20 19 916.36 916.36 0 0 1 6 29v1h-3a10.098 10.098 0 0 1-6-1.5 145.104 145.104 0 0 1-11.5-16.5c-2.011-7.347-4.011-14.681-6-22-.805-3.196-.638-6.196.5-9Z" style="opacity:1"/><path fill="#ccbaad" d="M91.5 263.5a292.327 292.327 0 0 1 2 24c-2.744-.252-5.244.415-7.5 2a14.102 14.102 0 0 0-3.5-1v-1c.11-8.025-.224-16.025-1-24 .722-.418 1.222-1.084 1.5-2 2.456 1.821 5.29 2.488 8.5 2Z" style="opacity:1"/><path fill="#e8c6ac" d="M197.5 279.5a208.536 208.536 0 0 0 35 26c-1.238.31-1.238.81 0 1.5a12425.97 12425.97 0 0 1 17 10.5v5c-.802 1.452-1.302 3.118-1.5 5-1.457-2.158-3.29-3.991-5.5-5.5a154.832 154.832 0 0 1-29-22 57.668 57.668 0 0 1-12-8 107.582 107.582 0 0 0-13-5 382.2 382.2 0 0 0-19-14.5 3.647 3.647 0 0 0-1.5 1 20.2 20.2 0 0 0-1.5-6c-.607.124-.94.457-1 1-1.15-4.816-1.316-9.816-.5-15a160.006 160.006 0 0 0 32 28 2.428 2.428 0 0 0 .5-2Z" style="opacity:1"/><path fill="#d6c6c1" d="M380.5 250.5a971.34 971.34 0 0 0 9 12 13.116 13.116 0 0 0 7 1c.26 5.694-.74 11.027-3 16-2.787-2.381-6.121-4.048-10-5-4.214-2.527-6.214-6.194-6-11h-3l6-13Z" style="opacity:1"/><path fill="#d18d75" d="M166.5 159.5c.951 1.419 1.284 3.085 1 5v7a482.15 482.15 0 0 0-3 77c2.085 4.18 5.085 7.513 9 10a179.568 179.568 0 0 0 24 21 2.428 2.428 0 0 1-.5 2 160.006 160.006 0 0 1-32-28c-.816 5.184-.65 10.184.5 15 .146 4.019.479 8.019 1 12h-2a4756.777 4756.777 0 0 0-3-44c.81-20.677 1.81-41.344 3-62 1.093-4.806 1.759-9.806 2-15Z" style="opacity:1"/><path fill="#fdfdfd" d="M414.5 265.5c2.604 25.649 9.771 49.982 21.5 73 1.391 2.836 3.224 5.169 5.5 7v32c-1.524 5.071-3.691 10.071-6.5 15l-3.5 3.5a67.164 67.164 0 0 1 10-2.5v19a381.355 381.355 0 0 1-18-15.5 10.134 10.134 0 0 0-4-1.5c-1.291.237-2.291-.096-3-1a112.97 112.97 0 0 0-.5-15c-.608-1.566-1.442-2.9-2.5-4-1.249-1.636-2.916-2.803-5-3.5-5.344-.471-10.678-.971-16-1.5-12.18-1.218-24.18-.884-36 1a31.986 31.986 0 0 0-13 2c-1.53-.14-2.53-.807-3-2 16.055-14.897 28.888-32.23 38.5-52a615.824 615.824 0 0 1 8.5-19c1.624-1.637 2.624-1.303 3 1a887.289 887.289 0 0 0-10 32 1263.603 1263.603 0 0 1-10 19c.855.793 1.689.46 2.5-1a17255.34 17255.34 0 0 1 8.5-15c13.781-21.69 24.281-45.023 31.5-70 .383-.556.883-.889 1.5-1Z" style="opacity:1"/><path fill="#d6c7cf" d="M374.5 263.5h3c-.214 4.806 1.786 8.473 6 11 3.879.952 7.213 2.619 10 5a48.715 48.715 0 0 1-3 12 64.735 64.735 0 0 1-6 9c-1.403-3.147-3.403-6.481-6-10-1.902-1.651-3.902-1.984-6-1l-6-4a246.697 246.697 0 0 0-2-7 60.147 60.147 0 0 0 10-15Z" style="opacity:1"/><path fill="#987267" d="M23.5 256.5c3.642 13.897 7.309 27.897 11 42h-1a240.688 240.688 0 0 1-10-42Z" style="opacity:1"/><path fill="#e1d1c0" d="M429.5 295.5c-1.248-.834-1.915-2.167-2-4a175.693 175.693 0 0 0-2.5-15c-1.898-2.184-4.064-2.517-6.5-1-1.609-5.779-2.109-11.779-1.5-18a68386.44 68386.44 0 0 1 5.5-20c1.32-5.167 2.486-5.167 3.5 0 .613 19.375 1.78 38.708 3.5 58Z" style="opacity:1"/><path fill="#cebbb8" d="M120.5 250.5c-.913 8.309-.246 16.642 2 25h-2c-.683-1.676-2.017-2.343-4-2-.308 3.86-.975 7.526-2 11a18.453 18.453 0 0 0-.5-6l-1 1c-.29 6.88-1.123 13.546-2.5 20a4.934 4.934 0 0 1-3-.5c2.015-1.555 2.348-3.389 1-5.5-2.071 2.637-4.571 3.637-7.5 3a35.892 35.892 0 0 1-10.5 3.5c-.912 2.205-2.245 4.038-4 5.5-2.383-5.301-3.717-10.968-4-17 1.195.178 2.362.511 3.5 1 2.256-1.585 4.756-2.252 7.5-2 .667 0 1 .333 1 1a18.437 18.437 0 0 0 .5 6c1.011.837 2.178 1.17 3.5 1v-27c.951-1.419 1.284-3.085 1-5 1.967-.239 3.801.094 5.5 1a8.43 8.43 0 0 0 .5-4 1041.63 1041.63 0 0 1 2 12l3-1.5a145.286 145.286 0 0 1 5.5-21.5c1.767-2.406 3.267-2.073 4.5 1Z" style="opacity:1"/><path fill="#fbf9fa" d="M120.5 275.5c1.612 11.337 4.945 22.171 10 32.5a3.943 3.943 0 0 1-1 2c-2.702.84-5.368 1.673-8 2.5a57.508 57.508 0 0 1-9 9 235.888 235.888 0 0 1 2-37c1.025-3.474 1.692-7.14 2-11 1.983-.343 3.317.324 4 2Z" style="opacity:1"/><path fill="#f7f1e7" d="M166.5 281.5a75.973 75.973 0 0 0 14 9c1.161 4.326 2.328 8.659 3.5 13 .92 3.438 2.587 6.438 5 9a23.91 23.91 0 0 1 2.5 9 51.569 51.569 0 0 0-7-1 245.089 245.089 0 0 1-30-7c-1.591-3.461-2.258-7.128-2-11-1.3-8.697-3.3-17.197-6-25.5 6.975 4.795 13.308 10.628 19 17.5a43.117 43.117 0 0 0 1-13Z" style="opacity:1"/><path fill="#e6c2b4" d="M144.5 273.5a31.147 31.147 0 0 1 2 2c.607-.124.94-.457 1-1a85.223 85.223 0 0 1 16 15 21.127 21.127 0 0 0 1-9h2v1a43.117 43.117 0 0 1-1 13c-5.692-6.872-12.025-12.705-19-17.5 2.7 8.303 4.7 16.803 6 25.5h-2a916.36 916.36 0 0 0-6-29Z" style="opacity:1"/><path fill="#d8c9da" d="M364.5 278.5a246.697 246.697 0 0 1 2 7l6 4c2.098-.984 4.098-.651 6 1 2.597 3.519 4.597 6.853 6 10a282.366 282.366 0 0 1-17 35c-.876.131-1.543-.202-2-1l4-6a252.804 252.804 0 0 1-11-5.5c-.837-1.011-1.17-2.178-1-3.5h-4v-6c-3.849.481-5.849-1.186-6-5l3-18a117.713 117.713 0 0 0 14-12Z" style="opacity:1"/><path fill="#edd3bc" d="M249.5 322.5a96.254 96.254 0 0 0 1 19 24305.917 24305.917 0 0 1-42-14c2.075.198 4.075.365 6 .5-3.83-7.482-7.663-14.982-11.5-22.5-5.61-7.885-13.11-12.885-22.5-15a75.973 75.973 0 0 1-14-9v-1a128.323 128.323 0 0 1-1-12c.06-.543.393-.876 1-1a20.2 20.2 0 0 1 1.5 6 3.647 3.647 0 0 1 1.5-1 382.2 382.2 0 0 1 19 14.5 107.582 107.582 0 0 1 13 5 57.668 57.668 0 0 0 12 8 154.832 154.832 0 0 0 29 22c2.21 1.509 4.043 3.342 5.5 5.5.198-1.882.698-3.548 1.5-5Z" style="opacity:1"/><path fill="#cdb4b0" d="M46.5 270.5a143.161 143.161 0 0 1 4 10v3c-.617-.111-1.117-.444-1.5-1l-.5 3.5c.924 9.927 2.09 19.76 3.5 29.5a215.523 215.523 0 0 0-7.5-18 106.399 106.399 0 0 1-7 9 62.926 62.926 0 0 1-4-8h1c3.514 1.631 6.514.964 9-2 1.333 0 2-.667 2-2a218.46 218.46 0 0 1 2.5 6 362.694 362.694 0 0 1-1.5-30Z" style="opacity:1"/><path fill="#b68d8b" d="M78.5 251.5a1406.789 1406.789 0 0 1 4 36v1c.283 6.032 1.617 11.699 4 17a41.58 41.58 0 0 0 1 8c.268 1.599-.066 2.932-1 4-5.286-14.82-7.953-30.153-8-46v-20Z" style="opacity:1"/><path fill="#b88f94" d="M120.5 275.5h2a115.754 115.754 0 0 0 10 31.5 4.934 4.934 0 0 0 3 .5v1a24.83 24.83 0 0 1-10 5c-1.599.268-2.932-.066-4-1 2.632-.827 5.298-1.66 8-2.5a3.943 3.943 0 0 0 1-2c-5.055-10.329-8.388-21.163-10-32.5Z" style="opacity:1"/><path fill="#9e6b6b" d="M147.5 303.5h3c1.098 1.101 1.265 2.434.5 4-.388-.928-1.055-1.595-2-2a33.681 33.681 0 0 1-13.5 3v-1a126.59 126.59 0 0 0 12-4Z" style="opacity:1"/><path fill="#decbbc" d="M435.5 274.5c1.261 2.758 2.094 5.758 2.5 9l1 17c.037 2.474.87 4.474 2.5 6v35c-1.25-.077-2.083-.744-2.5-2a433.463 433.463 0 0 1-7.5-43 340.117 340.117 0 0 1-2.5-45l6 26a4.934 4.934 0 0 0 .5-3Z" style="opacity:1"/><path fill="#f3e3d2" d="M180.5 290.5c9.39 2.115 16.89 7.115 22.5 15 3.837 7.518 7.67 15.018 11.5 22.5a240.024 240.024 0 0 1-6-.5 159.234 159.234 0 0 1-24-7c2.361.174 4.694.507 7 1a23.91 23.91 0 0 0-2.5-9c-2.413-2.562-4.08-5.562-5-9a8987.664 8987.664 0 0 1-3.5-13Z" style="opacity:1"/><path fill="#be543f" d="M232.5 305.5a93.206 93.206 0 0 1 19 12h-2a12425.97 12425.97 0 0 0-17-10.5c-1.238-.69-1.238-1.19 0-1.5Z" style="opacity:1"/><path fill="#9e6f8b" d="M302.5 343.5h-1c6.813-10.276 13.646-20.61 20.5-31 1.301-1.902 1.968-3.902 2-6a878.528 878.528 0 0 1-43.5 21.5c-3.502.282-6.835.449-10 .5-2.094 3.578-3.094 7.245-3 11 6.789 1.34 13.456 2.673 20 4l-25-2v-2c.996.086 1.829-.248 2.5-1a55.884 55.884 0 0 1 5.5-13c2.789 1.798 5.789 2.298 9 1.5a838.994 838.994 0 0 0 49-24.5c-6.771 14.466-15.438 28.133-26 41Z" style="opacity:1"/><path fill="#ddc6ca" d="M413.5 261.5c-.067 1.459.266 2.792 1 4-.617.111-1.117.444-1.5 1-7.219 24.977-17.719 48.31-31.5 70 .237-1.291-.096-2.291-1-3a887.289 887.289 0 0 1 10-32c-.376-2.303-1.376-2.637-3-1l4-8a6.547 6.547 0 0 1 3-3 95.43 95.43 0 0 1-3.5 18 225.4 225.4 0 0 0-7 23 521.413 521.413 0 0 0 29.5-69Z" style="opacity:1"/><path fill="#cdbcd0" d="M110.5 299.5c.166 8.673 0 17.34-.5 26a313.065 313.065 0 0 1-8.5 14.5c-4.189.812-8.189.645-12-.5a46 46 0 0 0-5-13.5c2.437.203 4.77 1.037 7 2.5l1-2a115.467 115.467 0 0 0-5-13 41.58 41.58 0 0 1-1-8c1.755-1.462 3.088-3.295 4-5.5 3.71-.633 7.21-1.8 10.5-3.5 2.929.637 5.429-.363 7.5-3 1.348 2.111 1.015 3.945-1 5.5a4.934 4.934 0 0 0 3 .5Z" style="opacity:1"/><path fill="#d8c9e5" d="M347.5 308.5c.151 3.814 2.151 5.481 6 5v6h4c-.17 1.322.163 2.489 1 3.5a252.804 252.804 0 0 0 11 5.5l-4 6c.457.798 1.124 1.131 2 1a145.37 145.37 0 0 1-25 32 67.69 67.69 0 0 0-1.5-17 31.291 31.291 0 0 1-4.5-5 390.347 390.347 0 0 0 11-37Z" style="opacity:1"/><path fill="#ece0d2" d="M429.5 295.5a373.33 373.33 0 0 0 6 35c.018 1.873-.482 2.206-1.5 1-8.285-17.807-13.452-36.473-15.5-56 2.436-1.517 4.602-1.184 6.5 1a175.693 175.693 0 0 1 2.5 15c.085 1.833.752 3.166 2 4Z" style="opacity:1"/><path fill="#ecdce4" d="M121.5 312.5c1.068.934 2.401 1.268 4 1h3a117.932 117.932 0 0 1 3 15c-.269 4.088-1.602 7.755-4 11a13.116 13.116 0 0 1-7 1c.882-7.892.882-15.892 0-24-2.813 2.324-5.146 4.99-7 8a5.727 5.727 0 0 0-1-3 57.508 57.508 0 0 0 9-9Z" style="opacity:1"/><path fill="#faf9f8" d="M249.5 317.5h2c.997 7.282 1.997 14.616 3 22-.14 1.53-.807 2.53-2 3-.992.172-1.658-.162-2-1a96.254 96.254 0 0 1-1-19v-5Z" style="opacity:1"/><path fill="#cebbe9" d="M301.5 343.5c-4.532-.318-8.866.015-13 1-.667 0-1-.333-1-1a3927.827 3927.827 0 0 0-20-4c-.094-3.755.906-7.422 3-11 3.165-.051 6.498-.218 10-.5a878.528 878.528 0 0 0 43.5-21.5c-.032 2.098-.699 4.098-2 6a16051.945 16051.945 0 0 1-20.5 31Z" style="opacity:1"/><path fill="#ebd5ca" d="M165.5 318.5c14.765 2.816 29.098 6.816 43 12a185.13 185.13 0 0 0-10 2 41.621 41.621 0 0 1-9.5-1 872.296 872.296 0 0 0-31.5 9c4.012-1.6 7.179-4.266 9.5-8 .667-1.333.667-2.667 0-4a44.27 44.27 0 0 0-5.5-9.5 8.43 8.43 0 0 1 4-.5Z" style="opacity:1"/><path fill="#a7695e" d="M154.5 313.5a245.089 245.089 0 0 0 30 7 159.234 159.234 0 0 0 24 7c13.911 4.651 27.911 9.318 42 14 .342.838 1.008 1.172 2 1 1.068.934 2.401 1.268 4 1a366.225 366.225 0 0 0 23 9c2.751 6.003 4.418 12.336 5 19-.31 1.238-.81 1.238-1.5 0-1.638-5.371-2.805-10.704-3.5-16-4.983-2.954-10.316-5.454-16-7.5a504.425 504.425 0 0 0-45-14.5c-3.05-1.601-6.384-2.601-10-3-13.902-5.184-28.235-9.184-43-12a415.565 415.565 0 0 0-26-5.5l-2-1a45.876 45.876 0 0 1 17 1.5Z" style="opacity:1"/><path fill="#c2a7bf" d="M346.5 290.5c1.205 1.186 2.539 1.186 4 0l-3 18a390.347 390.347 0 0 1-11 37 31.291 31.291 0 0 0 4.5 5 67.69 67.69 0 0 1 1.5 17c-.333 1-1 1.667-2 2a98.432 98.432 0 0 0-.5-14c-.232-1.237-.732-2.237-1.5-3-.333-1-1-1.667-2-2l-4-2c7.093-18.15 11.759-36.817 14-56-1.578 1.14-3.244 1.64-5 1.5a701.656 701.656 0 0 0 5-3.5Z" style="opacity:1"/><path fill="#f4ecf4" d="M120.5 340.5c-4.202-.317-8.202.017-12 1h-3a4.934 4.934 0 0 1-3-.5 414.28 414.28 0 0 1 11-16.5c1.854-3.01 4.187-5.676 7-8 .882 8.108.882 16.108 0 24Z" style="opacity:1"/><path fill="#a78193" d="M114.5 284.5a235.888 235.888 0 0 0-2 37c.61.891.943 1.891 1 3a414.28 414.28 0 0 0-11 16.5 4.934 4.934 0 0 0 3 .5v2c-3.9-.93-7.9-1.263-12-1a112.088 112.088 0 0 0-5-2c.124-.607.457-.94 1-1 3.811 1.145 7.811 1.312 12 .5a313.065 313.065 0 0 0 8.5-14.5c.5-8.66.666-17.327.5-26 1.377-6.454 2.21-13.12 2.5-20l1-1c.495 1.973.662 3.973.5 6Z" style="opacity:1"/><path fill="#e3c1bb" d="M251.5 317.5a20.69 20.69 0 0 1 5 1c-.709.904-1.709 1.237-3 1a406.972 406.972 0 0 0 2 20h7v2c-2.198-.091-2.531.575-1 2h-5c-1.599.268-2.932-.066-4-1 1.193-.47 1.86-1.47 2-3-1.003-7.384-2.003-14.718-3-22Z" style="opacity:1"/><path fill="#c4a7b2" d="M86.5 317.5c.934-1.068 1.268-2.401 1-4a115.467 115.467 0 0 1 5 13l-1 2c-2.23-1.463-4.563-2.297-7-2.5a46 46 0 0 1 5 13.5c-.543.06-.876.393-1 1 1.791.67 3.458 1.337 5 2h-6c.268-1.599-.066-2.932-1-4a168.44 168.44 0 0 1-5.5-17c-12.225-9.383-22.058-20.716-29.5-34a2.427 2.427 0 0 1 .5-2 96.99 96.99 0 0 0 9 14c6.5 7.833 13.667 15 21.5 21.5 5.95 4.937 7.283 3.77 4-3.5Z" style="opacity:1"/><path fill="#f0e2dc" d="M208.5 330.5c3.616.399 6.95 1.399 10 3-1.859-.039-3.192.794-4 2.5a878.141 878.141 0 0 0-33 3c-4.962 2.341-5.129 5.174-.5 8.5l1-1c3.705 2.764 7.705 3.43 12 2 4.448 2.634 9.282 4.3 14.5 5 5.302-1.776 10.635-2.609 16-2.5 1.043-1.976 2.377-2.476 4-1.5a38.335 38.335 0 0 0 11.5-6 220.06 220.06 0 0 1 34.5 13.5 12.93 12.93 0 0 0 5 .5 10.165 10.165 0 0 0-3 3 88.153 88.153 0 0 0-6 11c-.763 1.868-1.763 3.535-3 5a672.838 672.838 0 0 0-24-2c-3.284-.184-5.284 1.316-6 4.5-5.539 3.222-11.539 5.222-18 6a757.771 757.771 0 0 1-19 7.5 414.322 414.322 0 0 0-62-46c5.973-2.767 12.306-4.767 19-6a872.296 872.296 0 0 1 31.5-9 41.621 41.621 0 0 0 9.5 1 185.13 185.13 0 0 1 10-2Z" style="opacity:1"/><path fill="#b49187" d="M421.5 236.5c0 .667.333 1 1 1a68386.44 68386.44 0 0 0-5.5 20c-.609 6.221-.109 12.221 1.5 18 2.048 19.527 7.215 38.193 15.5 56 1.018 1.206 1.518.873 1.5-1a373.33 373.33 0 0 1-6-35c.809 1.792 1.309 3.792 1.5 6a12.93 12.93 0 0 0 .5-5 433.463 433.463 0 0 0 7.5 43c.417 1.256 1.25 1.923 2.5 2v4c-2.276-1.831-4.109-4.164-5.5-7-11.729-23.018-18.896-47.351-21.5-73-.734-1.208-1.067-2.541-1-4a273.91 273.91 0 0 1 8-25Z" style="opacity:1"/><path fill="#dbbeba" d="M150.5 303.5v-1h2c-.258 3.872.409 7.539 2 11a45.876 45.876 0 0 0-17-1.5l2 1a415.565 415.565 0 0 1 26 5.5 8.43 8.43 0 0 0-4 .5 44.27 44.27 0 0 1 5.5 9.5c.667 1.333.667 2.667 0 4-2.321 3.734-5.488 6.4-9.5 8-6.694 1.233-13.027 3.233-19 6a73.977 73.977 0 0 1-11-4.5c-6.325-.5-12.658-.666-19-.5 3.798-.983 7.798-1.317 12-1a13.116 13.116 0 0 0 7-1c2.398-3.245 3.731-6.912 4-11a117.932 117.932 0 0 0-3-15h-3a24.83 24.83 0 0 0 10-5 33.681 33.681 0 0 0 13.5-3c.945.405 1.612 1.072 2 2 .765-1.566.598-2.899-.5-4Z" style="opacity:1"/><path fill="#f4eae3" d="M218.5 333.5a504.425 504.425 0 0 1 45 14.5c5.684 2.046 11.017 4.546 16 7.5v2a12.93 12.93 0 0 1-5-.5 220.06 220.06 0 0 0-34.5-13.5 38.335 38.335 0 0 1-11.5 6c-1.623-.976-2.957-.476-4 1.5-5.365-.109-10.698.724-16 2.5-5.218-.7-10.052-2.366-14.5-5-4.295 1.43-8.295.764-12-2l-1 1c-4.629-3.326-4.462-6.159.5-8.5a878.141 878.141 0 0 1 33-3c.808-1.706 2.141-2.539 4-2.5Z" style="opacity:1"/><path fill="#b695a3" d="M390.5 291.5c0 .667.333 1 1 1l-4 8a615.824 615.824 0 0 0-8.5 19c-9.612 19.77-22.445 37.103-38.5 52h-1l1-2c1-.333 1.667-1 2-2a145.37 145.37 0 0 0 25-32 282.366 282.366 0 0 0 17-35 64.735 64.735 0 0 0 6-9Z" style="opacity:1"/><path fill="#fcfafa" d="m262.5 341.5 25 2c0 .667.333 1 1 1 3.228.914 6.561 1.247 10 1a398.33 398.33 0 0 0 38 5c1 .333 1.667 1 2 2a77.1 77.1 0 0 1 1 13c-2.846-.309-4.346-1.975-4.5-5a25.513 25.513 0 0 0-4.5-4 8163.122 8163.122 0 0 1-6 7c-6.126-4.061-12.793-7.061-20-9a2748.329 2748.329 0 0 0-43-11c-1.531-1.425-1.198-2.091 1-2Z" style="opacity:1"/><path fill="#97788a" d="M288.5 344.5c4.134-.985 8.468-1.318 13-1-.321 1.548-1.321 2.215-3 2-3.439.247-6.772-.086-10-1Z" style="opacity:1"/><path fill="#dacccb" d="M301.5 343.5h1c.834 1.248 2.167 1.915 4 2a858.432 858.432 0 0 1 26 3l4 2a398.33 398.33 0 0 1-38-5c1.679.215 2.679-.452 3-2Z" style="opacity:1"/><path fill="#b49093" d="M380.5 333.5c.904.709 1.237 1.709 1 3a17255.34 17255.34 0 0 0-8.5 15c-.811 1.46-1.645 1.793-2.5 1a1263.603 1263.603 0 0 0 10-19Z" style="opacity:1"/><path fill="#d7cdcc" d="M86.5 338.5c.934 1.068 1.268 2.401 1 4a19.934 19.934 0 0 0-9 2.5 253.784 253.784 0 0 1-25 16.5 14.694 14.694 0 0 1 3-3.5 117.555 117.555 0 0 0 21-14c2.707-1.908 5.707-2.741 9-2.5v-3Z" style="opacity:1"/><path fill="#eedcd8" d="M115.5 351.5c-1.644-.214-3.144.12-4.5 1-.439 6.799-3.773 11.799-10 15-1.678 3.676-1.511 7.343.5 11 2.81 1.241 5.477.908 8-1 3.813 3.331 7.979 5.997 12.5 8a37.138 37.138 0 0 1 4.5-2c2.717-.189 5.551.144 8.5 1a51.239 51.239 0 0 1 8.5 8.5c1.941 1.903 4.274 2.736 7 2.5.284 2.754.951 5.42 2 8a172.144 172.144 0 0 0 14 9.5c2.085 2.682 3.752 5.516 5 8.5.768.763 1.268 1.763 1.5 3 .499 5.657.666 11.324.5 17h-24a833.339 833.339 0 0 0-10-9 5.576 5.576 0 0 1 3 1c1.211-.774 1.211-1.607 0-2.5.608-.87 1.441-1.37 2.5-1.5a123.077 123.077 0 0 0 17 9l2.5-1a109.636 109.636 0 0 1 2-6.5 8.43 8.43 0 0 1 4-.5c.295-2.235-.039-4.235-1-6a334.677 334.677 0 0 0-26-27.5 168.657 168.657 0 0 0-28-11.5c-2.798-3.837-6.464-4.837-11-3a42656.23 42656.23 0 0 1-17 18 25.86 25.86 0 0 0 5 3c1.236 2.778 2.903 5.111 5 7-.667 0-1 .333-1 1-2.976-2.164-6.31-3.664-10-4.5a4288.726 4288.726 0 0 1-41-3.5c4.811-.986 9.811-1.653 15-2a89.21 89.21 0 0 0 15 2v-3a77.1 77.1 0 0 0-13-1c12.832-9.321 24.666-19.987 35.5-32 .688-.832.521-1.498-.5-2l-5 2.5c-3.62 3.467-7.62 6.3-12 8.5-1.562.233-2.895.9-4 2-3.462-.982-7.129-1.315-11-1-1.088-3.056-1.088-6.056 0-9a309.255 309.255 0 0 1 16-12.5c11.23-3.817 22.563-5.317 34-4.5Z" style="opacity:1"/><path fill="#ddbfb9" d="M117.5 352.5h2a116.983 116.983 0 0 1 11 9c8.07 2.749 14.737 7.415 20 14-1.322.17-2.489-.163-3.5-1a56.834 56.834 0 0 1-16.5 1.5 98.908 98.908 0 0 0-18-10.5c-1.432.233-1.932.9-1.5 2a98.955 98.955 0 0 1 13.5 10 82.94 82.94 0 0 0-11-5 517.59 517.59 0 0 1-10 5c-.34-3.631.494-6.964 2.5-10a36.154 36.154 0 0 1 9-7c.782-2.757.282-5.257-1.5-7.5a8.43 8.43 0 0 1 4-.5Z" style="opacity:1"/><path fill="#038229" d="M125.5 343.5a87.646 87.646 0 0 0 9 3.5 290.577 290.577 0 0 0 26 15 1406.793 1406.793 0 0 1 42 33.5 138.7 138.7 0 0 0 14 14 77.644 77.644 0 0 0 9.5 18 8.43 8.43 0 0 1 .5 4 443.673 443.673 0 0 0-10-3 84.365 84.365 0 0 1-15 1 28.986 28.986 0 0 1-9.5-6c-.667 1.333-1.333 1.333-2 0a8.43 8.43 0 0 0-.5 4 294.23 294.23 0 0 0-14.5-29 301.963 301.963 0 0 1-17-24c-11.452-12.466-24.618-22.632-39.5-30.5a24.935 24.935 0 0 1 7-.5Z" style="opacity:1"/><path fill="#dbb2ad" d="M256.5 343.5h5a2748.329 2748.329 0 0 1 43 11 94.669 94.669 0 0 1-10.5 18c-.64 1.765-.473 3.432.5 5a71.194 71.194 0 0 1-9-3c.237-1.291-.096-2.291-1-3-.582-6.664-2.249-12.997-5-19a366.225 366.225 0 0 1-23-9Z" style="opacity:1"/><path fill="#ecd7d2" d="M304.5 354.5c7.207 1.939 13.874 4.939 20 9l-3 4a65.842 65.842 0 0 1-10 12 12.066 12.066 0 0 1-4 3 152.612 152.612 0 0 1-13-5c-.973-1.568-1.14-3.235-.5-5a94.669 94.669 0 0 0 10.5-18Z" style="opacity:1"/><path fill="#e0c8b7" d="M338.5 352.5c.768.763 1.268 1.763 1.5 3 .499 4.655.666 9.321.5 14l-1 2c-2.398 2.474-5.398 3.808-9 4a25.936 25.936 0 0 0-9-8l3-4c2.007-2.339 4.007-4.672 6-7a25.513 25.513 0 0 1 4.5 4c.154 3.025 1.654 4.691 4.5 5a77.1 77.1 0 0 0-1-13Z" style="opacity:1"/><path fill="#c2948b" d="M279.5 355.5c.695 5.296 1.862 10.629 3.5 16 .69 1.238 1.19 1.238 1.5 0 .904.709 1.237 1.709 1 3h-2a168.789 168.789 0 0 1-11-3c1.608-3.3 3.275-6.633 5-10-.124-.607-.457-.94-1-1a10.165 10.165 0 0 1 3-3v-2Z" style="opacity:1"/><path fill="#95615a" d="M276.5 360.5c.543.06.876.393 1 1a557.884 557.884 0 0 0-5 10h-2a88.153 88.153 0 0 1 6-11Z" style="opacity:1"/><path fill="#c0b3ac" d="M53.5 361.5a133.355 133.355 0 0 1-9.5 10c-.667-.667-.667-1.333 0-2 2.766-3.277 5.933-5.943 9.5-8Z" style="opacity:1"/><path fill="#fdfcfa" d="M62.5 399.5a196.631 196.631 0 0 1-21 2c-.219-1.175.114-2.175 1-3 2.098-.457 3.764-1.457 5-3 12.27-4.3 23.27-10.633 33-19 4.38-2.2 8.38-5.033 12-8.5l5-2.5c1.021.502 1.188 1.168.5 2-10.834 12.013-22.668 22.679-35.5 32Z" style="opacity:1"/><path fill="#f0ebe4" d="M119.5 352.5c2.832.6 5.665 1.267 8.5 2 1.03-.336 1.53-1.003 1.5-2 18.191 12.189 32.525 27.856 43 47-.139 1.837-.806 2.17-2 1a182.299 182.299 0 0 0-20-25c-5.263-6.585-11.93-11.251-20-14a116.983 116.983 0 0 0-11-9Z" style="opacity:1"/><path fill="#2e441c" d="M105.5 341.5h3c6.342-.166 12.675 0 19 .5a73.977 73.977 0 0 0 11 4.5 414.322 414.322 0 0 1 62 46l2 3a1406.793 1406.793 0 0 0-42-33.5 290.577 290.577 0 0 1-26-15 87.646 87.646 0 0 1-9-3.5c-1.804-.662-3.804-.995-6-1a42.48 42.48 0 0 0-9 2 20.69 20.69 0 0 0-5-1v-2Z" style="opacity:1"/><path fill="#54523a" d="M392.5 370.5c-.342.838-1.008 1.172-2 1a140.623 140.623 0 0 0-39 5h-4c.453-.958 1.119-1.792 2-2.5 3.175-.467 5.508-1.3 7-2.5 11.82-1.884 23.82-2.218 36-1Z" style="opacity:1"/><path fill="#6f6f5f" d="M392.5 370.5c5.322.529 10.656 1.029 16 1.5 2.084.697 3.751 1.864 5 3.5v1c-3.509-2.615-7.509-3.615-12-3-3.462-.982-7.129-1.315-11-1v-1c.992.172 1.658-.162 2-1Z" style="opacity:1"/><path fill="#2a1c22" d="M270.5 371.5h2a168.789 168.789 0 0 0 11 3c3.254 2.245 6.92 3.745 11 4.5 2.419 1.509 3.419 3.675 3 6.5-8.65 1.908-16.484 5.575-23.5 11-2.719-.944-5.552-1.277-8.5-1h-4c-.838-.342-1.172-1.008-1-2a89.205 89.205 0 0 0 7-17c1.237-1.465 2.237-3.132 3-5Z" style="opacity:1"/><path fill="#928865" d="M390.5 371.5v1h-5c-5.085-.291-9.418 1.376-13 5-.731 1.901-.731 3.901 0 6a31.686 31.686 0 0 0-6-2c-1.696-.185-3.029-1.019-4-2.5-3.394-.752-6.727-.585-10 .5l-3-1.5c.916-.278 1.582-.778 2-1.5a140.623 140.623 0 0 1 39-5Z" style="opacity:1"/><path fill="#f9f2f0" d="M267.5 376.5a89.205 89.205 0 0 1-7 17 497.059 497.059 0 0 0-11 27l-2 6c-1.694 1.027-3.027 2.361-4 4a4.934 4.934 0 0 1-3-.5 660.824 660.824 0 0 0-22-21.5 120.229 120.229 0 0 0-16-13l-2-3a757.771 757.771 0 0 0 19-7.5c6.461-.778 12.461-2.778 18-6 .716-3.184 2.716-4.684 6-4.5a672.838 672.838 0 0 1 24 2Z" style="opacity:1"/><path fill="#371b1c" d="M321.5 367.5a25.936 25.936 0 0 1 9 8c1.384 1.301 2.884 1.301 4.5 0a11.333 11.333 0 0 0 1.5 3.5 2.428 2.428 0 0 1-2 .5 112.97 112.97 0 0 0-15 .5c-2.951.096-5.618.929-8 2.5-.587-.733-.587-1.733 0-3a65.842 65.842 0 0 0 10-12Z" style="opacity:1"/><path fill="#f7efeb" d="M65.5 368.5c-1.088 2.944-1.088 5.944 0 9 3.871-.315 7.538.018 11 1a210.304 210.304 0 0 1-29 17c-1.236 1.543-2.902 2.543-5 3-.886.825-1.219 1.825-1 3-1.902 1.011-3.902 1.178-6 .5a7.292 7.292 0 0 1 3-2l-1.5-.5a34.208 34.208 0 0 1-11.5 4c2.409-3.205 5.742-4.872 10-5a8.435 8.435 0 0 1 .5-4 156.633 156.633 0 0 1 29.5-26Z" style="opacity:1"/><path fill="#b1b595" d="M401.5 373.5c4.491-.615 8.491.385 12 3 1.764 5.144 2.431 10.477 2 16a12.992 12.992 0 0 1-5.5-1c-1.261.259-2.261.926-3 2-4.735-.531-9.069-2.198-13-5-2.203-3.053-1.703-5.553 1.5-7.5h-6a36.16 36.16 0 0 1 7-4c.837-1.011 1.17-2.178 1-3.5h4Z" style="opacity:1"/><path fill="#603e3e" d="M311.5 379.5c-.587 1.267-.587 2.267 0 3 2.382-1.571 5.049-2.404 8-2.5a112.97 112.97 0 0 1 15-.5c2.239 1.042 4.405 2.375 6.5 4 1.373 2.195 1.706 4.529 1 7-6.244-.818-12.411-.818-18.5 0a89.72 89.72 0 0 1-16-8 12.066 12.066 0 0 0 4-3Z" style="opacity:1"/><path fill="#4e4930" d="M347.5 390.5c-.595-2.817-1.928-5.15-4-7 3.241-1.692 6.741-2.692 10.5-3 6.774.281 8.94 3.614 6.5 10-4.318 1.04-8.651 1.04-13 0Z" style="opacity:1"/><path fill="#aca487" d="M385.5 372.5h5c3.871-.315 7.538.018 11 1h-4c.17 1.322-.163 2.489-1 3.5a36.16 36.16 0 0 0-7 4h6c-3.203 1.947-3.703 4.447-1.5 7.5 3.931 2.802 8.265 4.469 13 5 .739-1.074 1.739-1.741 3-2a12.992 12.992 0 0 0 5.5 1c.431-5.523-.236-10.856-2-16v-1c1.058 1.1 1.892 2.434 2.5 4 .499 4.989.666 9.989.5 15-.667 0-1 .333-1 1-7.522-.211-15.189-.378-23-.5-6.297-2.444-9.13-6.944-8.5-13.5l2.5-2.5c-2.178-.165-4.011.668-5.5 2.5.149-3.516 1.983-6.016 5.5-7.5-.556-.383-.889-.883-1-1.5Z" style="opacity:1"/><path fill="#ba9a95" d="M80.5 376.5c-9.73 8.367-20.73 14.7-33 19a210.304 210.304 0 0 0 29-17c1.105-1.1 2.438-1.767 4-2Z" style="opacity:1"/><path fill="#234d20" d="M125.5 343.5a24.935 24.935 0 0 0-7 .5c14.882 7.868 28.048 18.034 39.5 30.5a301.963 301.963 0 0 0 17 24 294.23 294.23 0 0 1 14.5 29 109.094 109.094 0 0 1 4 14h-4c-.473-8.751-3.139-16.751-8-24a155.605 155.605 0 0 0-9-18c-10.475-19.144-24.809-34.811-43-47-6.322-3.095-12.656-5.762-19-8a42.48 42.48 0 0 1 9-2c2.196.005 4.196.338 6 1Z" style="opacity:1"/><path fill="#fbf8f6" d="M115.5 385.5a168.657 168.657 0 0 1 28 11.5 334.677 334.677 0 0 1 26 27.5c.262 1.478-.071 2.811-1 4-20.305-11.046-41.971-18.212-65-21.5-1.944-1.722-2.944-3.889-3-6.5.882-5.596 3.215-10.429 7-14.5a32.462 32.462 0 0 1 8-.5Z" style="opacity:1"/><path fill="#e4cdc5" d="M115.5 351.5c.992-.172 1.658.162 2 1a8.43 8.43 0 0 0-4 .5c1.782 2.243 2.282 4.743 1.5 7.5a36.154 36.154 0 0 0-9 7c-2.006 3.036-2.84 6.369-2.5 10a517.59 517.59 0 0 0 10-5 82.94 82.94 0 0 1 11 5c13.093 6.054 25.093 13.887 36 23.5a45.255 45.255 0 0 0 8.5 7.5c1.908 2.706 2.741 5.706 2.5 9v4c-1.248-2.984-2.915-5.818-5-8.5a172.144 172.144 0 0 1-14-9.5 29.045 29.045 0 0 1-2-8c-2.726.236-5.059-.597-7-2.5a51.239 51.239 0 0 0-8.5-8.5c-2.949-.856-5.783-1.189-8.5-1a37.138 37.138 0 0 0-4.5 2c-4.521-2.003-8.687-4.669-12.5-8-2.523 1.908-5.19 2.241-8 1-2.011-3.657-2.178-7.324-.5-11 6.227-3.201 9.561-8.201 10-15 1.356-.88 2.856-1.214 4.5-1Z" style="opacity:1"/><path fill="#a8987c" d="M385.5 372.5c.111.617.444 1.117 1 1.5-3.517 1.484-5.351 3.984-5.5 7.5 1.489-1.832 3.322-2.665 5.5-2.5l-2.5 2.5c-.63 6.556 2.203 11.056 8.5 13.5 7.811.122 15.478.289 23 .5v1a12.93 12.93 0 0 0-5 .5c-8.4 6.083-17.4 7.083-27 3l-4.5-4.5c-.691 2.391-1.691 2.391-3 0-1.174-4.035-2.341-8.035-3.5-12-.731-2.099-.731-4.099 0-6 3.582-3.624 7.915-5.291 13-5Z" style="opacity:1"/><path fill="#d0bfc2" d="M34.5 381.5c1.025.397 1.192 1.063.5 2l-9 12c2.016-5.008 4.85-9.675 8.5-14Z" style="opacity:1"/><path fill="#41312f" d="M339.5 371.5h1c.47 1.193 1.47 1.86 3 2a31.986 31.986 0 0 1 13-2c-1.492 1.2-3.825 2.033-7 2.5-.881.708-1.547 1.542-2 2.5a547.49 547.49 0 0 1-9 2.5 31.447 31.447 0 0 0 5 4.5c2.072 1.85 3.405 4.183 4 7v3c-1.25-.077-2.083-.744-2.5-2a40.914 40.914 0 0 0-.5 9c-4.973.664-9.973.997-15 1a41.73 41.73 0 0 1-1-9c-2.198.38-3.865-.287-5-2 6.089-.818 12.256-.818 18.5 0 .706-2.471.373-4.805-1-7-2.095-1.625-4.261-2.958-6.5-4a2.428 2.428 0 0 0 2-.5 11.333 11.333 0 0 1-1.5-3.5c-1.616 1.301-3.116 1.301-4.5 0 3.602-.192 6.602-1.526 9-4Z" style="opacity:1"/><path fill="#dbced1" d="M441.5 377.5v16a67.164 67.164 0 0 0-10 2.5l3.5-3.5c2.809-4.929 4.976-9.929 6.5-15Z" style="opacity:1"/><path fill="#725c48" d="M347.5 376.5h4c-.418.722-1.084 1.222-2 1.5l3 1.5c3.273-1.085 6.606-1.252 10-.5.971 1.481 2.304 2.315 4 2.5a207.19 207.19 0 0 0 4 16l-1 2c2.023 2.353 4.023 4.686 6 7v1c-1.25.077-2.083.744-2.5 2l-9.5-7.5c-3.339.813-6.672.646-10-.5h-2c-2.221-2.193-3.554-4.86-4-8v-3c4.349 1.04 8.682 1.04 13 0 2.44-6.386.274-9.719-6.5-10-3.759.308-7.259 1.308-10.5 3a31.447 31.447 0 0 1-5-4.5 547.49 547.49 0 0 0 9-2.5Z" style="opacity:1"/><path fill="#71394e" d="M270.5 399.5a5.727 5.727 0 0 0 1-3c.768.763 1.268 1.763 1.5 3 9.523-7.682 20.356-11.849 32.5-12.5a229.249 229.249 0 0 0-18 6 172.317 172.317 0 0 0-21 13.5l-1-.5a46.607 46.607 0 0 1 6-5.5c-.124-.607-.457-.94-1-1Z" style="opacity:1"/><path fill="#443720" d="M202.5 395.5a120.229 120.229 0 0 1 16 13v2l-2-1a138.7 138.7 0 0 1-14-14Z" style="opacity:1"/><path fill="#c88982" d="M261.5 395.5h4c1.765.961 3.765 1.295 6 1a5.727 5.727 0 0 1-1 3 68.648 68.648 0 0 0-17 17c-.543-.06-.876-.393-1-1a189.364 189.364 0 0 0 9-20Z" style="opacity:1"/><path fill="#b48b81" d="M41.5 401.5a196.631 196.631 0 0 0 21-2 77.1 77.1 0 0 1 13 1v3a89.21 89.21 0 0 1-15-2c-5.189.347-10.189 1.014-15 2h-2a72.368 72.368 0 0 0-12 .5 278.242 278.242 0 0 1-32 7.5v-2c9.152-.457 17.82-2.457 26-6a34.208 34.208 0 0 0 11.5-4l1.5.5a7.292 7.292 0 0 0-3 2c2.098.678 4.098.511 6-.5Z" style="opacity:1"/><path fill="#2f1e27" d="M283.5 374.5h2a71.194 71.194 0 0 0 9 3 152.612 152.612 0 0 0 13 5 89.72 89.72 0 0 0 16 8c1.135 1.713 2.802 2.38 5 2a41.73 41.73 0 0 0 1 9 113.727 113.727 0 0 0 15-1 40.914 40.914 0 0 1 .5-9c.417 1.256 1.25 1.923 2.5 2 .446 3.14 1.779 5.807 4 8h-4v5c-1.107-2.266-2.94-3.599-5.5-4a40.927 40.927 0 0 1-10.5 1c.214 5.064 1.547 9.731 4 14-.237 1.291.096 2.291 1 3a5.727 5.727 0 0 0 1 3 43.824 43.824 0 0 0 2 6c-.284 1.915.049 3.581 1 5a21.435 21.435 0 0 1 1 7h-14c.227-9.182-.773-18.182-3-27a11.988 11.988 0 0 0-1-6c-.825-.886-1.825-1.219-3-1 .278 1.846-.389 3.18-2 4a37.508 37.508 0 0 1-8-3c-1.238-2.668-1.238-5.334 0-8a45.59 45.59 0 0 1 9-7c-2.079-2.237-4.579-3.903-7.5-5a1319.89 1319.89 0 0 1-13.5 7 1023.422 1023.422 0 0 0-32 23.5c-1.924 1.75-3.591 3.583-5 5.5-2.584-.548-3.584-2.215-3-5a12.93 12.93 0 0 0-5 .5 998.465 998.465 0 0 0-6 6.5l2-6c1.667-1 3-2.333 4-4a68.648 68.648 0 0 1 17-17c.543.06.876.393 1 1a46.607 46.607 0 0 0-6 5.5l1 .5a172.317 172.317 0 0 1 21-13.5 229.249 229.249 0 0 1 18-6c-12.144.651-22.977 4.818-32.5 12.5-.232-1.237-.732-2.237-1.5-3-2.235.295-4.235-.039-6-1 2.948-.277 5.781.056 8.5 1 7.016-5.425 14.85-9.092 23.5-11 .419-2.825-.581-4.991-3-6.5-4.08-.755-7.746-2.255-11-4.5Z" style="opacity:1"/><path fill="#452b35" d="M324.5 414.5a44.093 44.093 0 0 1-2-3 9.86 9.86 0 0 0-1 6c-8.842-.507-13.842-5.174-15-14-3.097-2.43-5.763-5.096-8-8a1319.89 1319.89 0 0 0 13.5-7c2.921 1.097 5.421 2.763 7.5 5a45.59 45.59 0 0 0-9 7c-1.238 2.666-1.238 5.332 0 8a37.508 37.508 0 0 0 8 3c1.611-.82 2.278-2.154 2-4 1.175-.219 2.175.114 3 1a11.988 11.988 0 0 1 1 6Z" style="opacity:1"/><path fill="#fefdfc" d="M123.5 441.5h-74c-.074-1.911-1.074-3.078-3-3.5-15.676-2.935-31.343-3.102-47-.5v-23h6a801.23 801.23 0 0 0 30-6.5 100.189 100.189 0 0 1 26-2c.916.374 1.75.874 2.5 1.5a181.333 181.333 0 0 0 16 27c1.94 1.301 3.106.635 3.5-2 4.975-3.632 10.142-4.965 15.5-4a20.528 20.528 0 0 1 4.5-3c6.148 1.089 10.815 4.256 14 9.5 3.589.754 5.589 2.921 6 6.5Z" style="opacity:1"/><path fill="#9b7f68" d="M366.5 381.5a31.686 31.686 0 0 1 6 2c1.159 3.965 2.326 7.965 3.5 12 1.309 2.391 2.309 2.391 3 0l4.5 4.5c9.6 4.083 18.6 3.083 27-3a12.93 12.93 0 0 1 5-.5l-1 2a9.108 9.108 0 0 0-5 1c-3.304 4.324-7.637 7.157-13 8.5-7.116.825-14.116.325-21-1.5a2968.346 2968.346 0 0 0-6-7l1-2a207.19 207.19 0 0 1-4-16Z" style="opacity:1"/><path fill="#66424d" d="M298.5 395.5c2.237 2.904 4.903 5.57 8 8 1.158 8.826 6.158 13.493 15 14a9.86 9.86 0 0 1 1-6 44.093 44.093 0 0 0 2 3c2.227 8.818 3.227 17.818 3 27h-11a31.818 31.818 0 0 0-1.5-12c-3.922-3.251-7.088-7.084-9.5-11.5a3331.836 3331.836 0 0 1-8-5c-8.863-4.435-16.363-2.935-22.5 4.5l-1.5 6c-.397 6.22.27 12.22 2 18h-2c-1.837-7.145-5.837-12.812-12-17 1.409-1.917 3.076-3.75 5-5.5a1023.422 1023.422 0 0 1 32-23.5Z" style="opacity:1"/><path fill="#f6ede9" d="M115.5 385.5a32.462 32.462 0 0 0-8 .5c-3.785 4.071-6.118 8.904-7 14.5.056 2.611 1.056 4.778 3 6.5 23.029 3.288 44.695 10.454 65 21.5.929-1.189 1.262-2.522 1-4 .961 1.765 1.295 3.765 1 6a8.43 8.43 0 0 0-4 .5 109.636 109.636 0 0 0-2 6.5l-2.5 1a123.077 123.077 0 0 1-17-9c-1.059.13-1.892.63-2.5 1.5 1.211.893 1.211 1.726 0 2.5a5.576 5.576 0 0 0-3-1 314.44 314.44 0 0 0-42-22c-2.097-1.889-3.764-4.222-5-7a25.86 25.86 0 0 1-5-3 42656.23 42656.23 0 0 0 17-18c4.536-1.837 8.202-.837 11 3Z" style="opacity:1"/><path fill="#caa097" d="M150.5 375.5a182.299 182.299 0 0 1 20 25c1.194 1.17 1.861.837 2-1a155.605 155.605 0 0 1 9 18c-3.122-2.845-5.455-2.179-7 2a185.977 185.977 0 0 0-3-2c.241-3.294-.592-6.294-2.5-9a45.255 45.255 0 0 1-8.5-7.5c-10.907-9.613-22.907-17.446-36-23.5a98.955 98.955 0 0 0-13.5-10c-.432-1.1.068-1.767 1.5-2a98.908 98.908 0 0 1 18 10.5 56.834 56.834 0 0 0 16.5-1.5c1.011.837 2.178 1.17 3.5 1Z" style="opacity:1"/><path fill="#f1dfd4" d="M43.5 403.5a51.239 51.239 0 0 0-4 2.5 447.292 447.292 0 0 0-29 6c-2.153.099-3.82.933-5 2.5h-6v-3a278.242 278.242 0 0 0 32-7.5 72.368 72.368 0 0 1 12-.5Z" style="opacity:1"/><path fill="#906d5d" d="M414.5 398.5v1a92.256 92.256 0 0 1-18 13.5 30.485 30.485 0 0 1-11 0 72 72 0 0 1-10-5.5v-1c6.884 1.825 13.884 2.325 21 1.5 5.363-1.343 9.696-4.176 13-8.5a9.108 9.108 0 0 1 5-1Z" style="opacity:1"/><path fill="#aa556b" d="M347.5 406.5a54.343 54.343 0 0 1 4 9l-16-1v3c-2.453-4.269-3.786-8.936-4-14 3.542.12 7.042-.214 10.5-1 2.56.401 4.393 1.734 5.5 4Z" style="opacity:1"/><path fill="#7c564d" d="M414.5 399.5c.305 3.727-1.195 6.394-4.5 8-1.424 4.293-3.591 8.126-6.5 11.5-7.713 2.232-15.213 1.732-22.5-1.5-.383.556-.883.889-1.5 1a139.708 139.708 0 0 0-16-12l-10-5c3.328 1.146 6.661 1.313 10 .5l9.5 7.5c.417-1.256 1.25-1.923 2.5-2a72 72 0 0 0 10 5.5c3.667.667 7.333.667 11 0a92.256 92.256 0 0 0 18-13.5Z" style="opacity:1"/><path fill="#251a49" d="M351.5 401.5c1.324 2.911 3.657 4.411 7 4.5l2.5 2.5a72.262 72.262 0 0 0 8.5 11.5c1.017 2.787 1.184 5.62.5 8.5-1.333 1.333-2.667 1.333-4 0a4.457 4.457 0 0 1-1.5 2 5.576 5.576 0 0 0-3-1c-1.19-2.369-2.857-4.369-5-6a24.766 24.766 0 0 0-5-8 54.343 54.343 0 0 0-4-9v-5h4Z" style="opacity:1"/><path fill="#895048" d="M260.5 393.5c-.172.992.162 1.658 1 2a189.364 189.364 0 0 1-9 20c.124.607.457.94 1 1-1 1.667-2.333 3-4 4a497.059 497.059 0 0 1 11-27Z" style="opacity:1"/><path fill="#bd798d" d="M351.5 415.5a24.766 24.766 0 0 1 5 8 401.592 401.592 0 0 0-18.5-5c-1.03.336-1.53 1.003-1.5 2-.904-.709-1.237-1.709-1-3v-3l16 1Z" style="opacity:1"/><path fill="#e2c5b2" d="M419.5 395.5c1.422.209 2.755.709 4 1.5a381.355 381.355 0 0 0 18 15.5v2c-3.248-1.903-6.248-4.237-9-7l-1 1 4.5 7c.667 1.333.667 2.667 0 4a104.377 104.377 0 0 0-9.5 10c-3.849-2.903-7.183-6.237-10-10a69.282 69.282 0 0 1-.5-19c.257-2.407 1.424-4.073 3.5-5Z" style="opacity:1"/><path fill="#73423e" d="M218.5 408.5a660.824 660.824 0 0 1 22 21.5 4.934 4.934 0 0 0 3 .5l-2 2a522.556 522.556 0 0 1-19.5-19 2.428 2.428 0 0 0-.5 2 27.195 27.195 0 0 0-3-5v-2Z" style="opacity:1"/><path fill="#8e6870" d="M309.5 441.5h-9c-1.434-11.274-7.767-16.44-19-15.5-1.956 3.595-2.456 7.428-1.5 11.5 1.188 1.063 1.688 2.397 1.5 4h-6c-1.73-5.78-2.397-11.78-2-18 7.112-8.026 15.445-9.526 25-4.5l8.5 8.5a35.455 35.455 0 0 1 2.5 14Z" style="opacity:1"/><path fill="#6e4746" d="M416.5 394.5c.709.904 1.709 1.237 3 1-2.076.927-3.243 2.593-3.5 5a69.282 69.282 0 0 0 .5 19c-.647.774-.98 1.774-1 3a121.884 121.884 0 0 1 1.5 17c-6.064-24.242-8.897-23.576-8.5 2h-5a4.934 4.934 0 0 0-.5-3 34.706 34.706 0 0 1-7.5-6.5c-1.316-.528-1.983-.028-2 1.5-4.716-5.046-9.383-10.046-14-15 .617-.111 1.117-.444 1.5-1 7.287 3.232 14.787 3.732 22.5 1.5 2.909-3.374 5.076-7.207 6.5-11.5 3.305-1.606 4.805-4.273 4.5-8v-1l1-2v-1c0-.667.333-1 1-1Z" style="opacity:1"/><path fill="#ecd9cb" d="M441.5 414.5v27h-4a4792.753 4792.753 0 0 0-11-12 104.377 104.377 0 0 1 9.5-10c.667-1.333.667-2.667 0-4l-4.5-7 1-1c2.752 2.763 5.752 5.097 9 7Z" style="opacity:1"/><path fill="#f7f1ed" d="M43.5 403.5h2a4288.726 4288.726 0 0 0 41 3.5c3.69.836 7.024 2.336 10 4.5 16.402 6.698 31.735 15.198 46 25.5 1.641 1.129 2.641 2.629 3 4.5h-22c-.411-3.579-2.411-5.746-6-6.5-3.185-5.244-7.852-8.411-14-9.5a20.528 20.528 0 0 0-4.5 3c-5.358-.965-10.525.368-15.5 4-.394 2.635-1.56 3.301-3.5 2a181.333 181.333 0 0 1-16-27 9.457 9.457 0 0 0-2.5-1.5 100.189 100.189 0 0 0-26 2 801.23 801.23 0 0 1-30 6.5c1.18-1.567 2.847-2.401 5-2.5a447.292 447.292 0 0 1 29-6 51.239 51.239 0 0 1 4-2.5Z" style="opacity:1"/><path fill="#c38b82" d="M241.5 432.5c2.858 2.212 4.191 5.212 4 9h-14c-1.564-9.361-4.898-18.028-10-26a2.428 2.428 0 0 1 .5-2 522.556 522.556 0 0 0 19.5 19Z" style="opacity:1"/><path fill="#ba8396" d="M337.5 423.5a57.305 57.305 0 0 1 18 6 38.786 38.786 0 0 1-16 0 43.824 43.824 0 0 1-2-6Z" style="opacity:1"/><path fill="#4e3333" d="M416.5 419.5c2.817 3.763 6.151 7.097 10 10 3.745 4.072 7.412 8.072 11 12h-2a124.864 124.864 0 0 0-16.5-16 321.71 321.71 0 0 1 1.5 16h-12c-.397-25.576 2.436-26.242 8.5-2a121.884 121.884 0 0 0-1.5-17c.02-1.226.353-2.226 1-3Z" style="opacity:1"/><path fill="#caaca3" d="M96.5 411.5c0-.667.333-1 1-1a314.44 314.44 0 0 1 42 22 833.339 833.339 0 0 1 10 9h-4c-.359-1.871-1.359-3.371-3-4.5-14.265-10.302-29.598-18.802-46-25.5Z" style="opacity:1"/><path fill="#2a193a" d="M261.5 424.5c6.163 4.188 10.163 9.855 12 17h-2a8.43 8.43 0 0 0-.5-4c-2.167-1.5-4-3.333-5.5-5.5a102.63 102.63 0 0 1-13-1.5c-3.297.291-5.297 1.958-6 5-.639-.597-.972-1.43-1-2.5a29.291 29.291 0 0 0 2-6.5 998.465 998.465 0 0 1 6-6.5 12.93 12.93 0 0 1 5-.5c-.584 2.785.416 4.452 3 5Z" style="opacity:1"/><path fill="#08913c" d="M226.5 431.5c2.212 2.821 3.212 6.155 3 10h-36a109.094 109.094 0 0 0-4-14 8.43 8.43 0 0 1 .5-4c.667 1.333 1.333 1.333 2 0a28.986 28.986 0 0 0 9.5 6c4.96.118 9.96-.216 15-1 3.366.967 6.699 1.967 10 3Z" style="opacity:1"/><path fill="#dcbcb8" d="M181.5 417.5c4.861 7.249 7.527 15.249 8 24h-16a145.053 145.053 0 0 0-.5-17c-.232-1.237-.732-2.237-1.5-3v-4c.982.641 1.982 1.307 3 2 1.545-4.179 3.878-4.845 7-2Z" style="opacity:1"/><path fill="#a17f84" d="M300.5 441.5h-19c.188-1.603-.312-2.937-1.5-4-.956-4.072-.456-7.905 1.5-11.5 11.233-.94 17.566 4.226 19 15.5Z" style="opacity:1"/><path fill="#d7aab4" d="M356.5 423.5c2.143 1.631 3.81 3.631 5 6a71.12 71.12 0 0 1 8 12h-8c.273-1.951-.393-3.451-2-4.5-6.341-1.839-12.674-3.672-19-5.5v3c-.951-1.419-1.284-3.085-1-5a38.786 38.786 0 0 0 16 0 57.305 57.305 0 0 0-18-6 5.727 5.727 0 0 1-1-3c-.03-.997.47-1.664 1.5-2a401.592 401.592 0 0 1 18.5 5Z" style="opacity:1"/><path fill="#303e1a" d="m216.5 409.5 2 1a27.195 27.195 0 0 1 3 5c5.102 7.972 8.436 16.639 10 26h-2c.212-3.845-.788-7.179-3-10a8.43 8.43 0 0 0-.5-4 77.644 77.644 0 0 1-9.5-18Z" style="opacity:1"/><path fill="#451a29" d="M247.5 426.5a29.291 29.291 0 0 1-2 6.5c.028 1.07.361 1.903 1 2.5a19.22 19.22 0 0 1 1 6h-2c.191-3.788-1.142-6.788-4-9l2-2c.973-1.639 2.306-2.973 4-4Z" style="opacity:1"/><path fill="#261544" d="M271.5 441.5h-24a19.22 19.22 0 0 0-1-6c.703-3.042 2.703-4.709 6-5a102.63 102.63 0 0 0 13 1.5c1.5 2.167 3.333 4 5.5 5.5a8.43 8.43 0 0 1 .5 4Z" style="opacity:1"/><path fill="#342621" d="M363.5 406.5a139.708 139.708 0 0 1 16 12c4.617 4.954 9.284 9.954 14 15a34.482 34.482 0 0 1 6 8h-20c-.175-2.344-1.342-4.011-3.5-5a50.974 50.974 0 0 0-2.5-15.5c1.639-2.915.972-5.082-2-6.5a40.775 40.775 0 0 0-6-4.5c-1.323-.816-1.989-1.983-2-3.5Z" style="opacity:1"/><path fill="#6f4a47" d="M435.5 441.5h-15a321.71 321.71 0 0 0-1.5-16 124.864 124.864 0 0 1 16.5 16Z" style="opacity:1"/><path fill="#7d555f" d="M316.5 441.5h-7c.113-4.83-.72-9.497-2.5-14l-8.5-8.5c-9.555-5.026-17.888-3.526-25 4.5l1.5-6c6.137-7.435 13.637-8.935 22.5-4.5 2.673 1.676 5.339 3.342 8 5 2.412 4.416 5.578 8.249 9.5 11.5a31.818 31.818 0 0 1 1.5 12Z" style="opacity:1"/><path fill="#2d2040" d="M351.5 401.5h2l10 5c.011 1.517.677 2.684 2 3.5a40.775 40.775 0 0 1 6 4.5c.178 6.344.844 12.344 2 18a28.153 28.153 0 0 1-3 9h-1a71.12 71.12 0 0 0-8-12 5.576 5.576 0 0 1 3 1 4.457 4.457 0 0 0 1.5-2c1.333 1.333 2.667 1.333 4 0 .684-2.88.517-5.713-.5-8.5a72.262 72.262 0 0 1-8.5-11.5l-2.5-2.5c-3.343-.089-5.676-1.589-7-4.5Z" style="opacity:1"/><path fill="#352631" d="M371.5 414.5c2.972 1.418 3.639 3.585 2 6.5a50.974 50.974 0 0 1 2.5 15.5c2.158.989 3.325 2.656 3.5 5h-9a28.153 28.153 0 0 0 3-9c-1.156-5.656-1.822-11.656-2-18Z" style="opacity:1"/><path fill="#f6ebe5" d="M49.5 441.5h-50v-4c15.657-2.602 31.324-2.435 47 .5 1.926.422 2.926 1.589 3 3.5Z" style="opacity:1"/><path fill="#f6e7e8" d="M361.5 441.5h-20a21.435 21.435 0 0 0-1-7v-3c6.326 1.828 12.659 3.661 19 5.5 1.607 1.049 2.273 2.549 2 4.5Z" style="opacity:1"/><path fill="#8f4f5f" d="M403.5 441.5h-4a34.482 34.482 0 0 0-6-8c.017-1.528.684-2.028 2-1.5a34.706 34.706 0 0 0 7.5 6.5c.483.948.649 1.948.5 3Z" style="opacity:1"/></svg>